
        <svg xmlns="http://www.w3.org/2000/svg" xmlns:xlink="http://www.w3.org/1999/xlink" version="1.1" width="3153.846153846154" height="2392.3076923076924" viewBox="0 0 3153.846153846154 2392.3076923076924">
			
			<g transform="scale(7.6923076923076925) translate(10, 10)">
				<defs id="SvgjsDefs15309"/><g id="SvgjsG15310" featureKey="rootContainer" transform="matrix(1,0,0,1,0,0)" fill="#000"><rect xmlns="http://www.w3.org/2000/svg" width="390" height="291" rx="10" ry="10"/></g><g id="SvgjsG15311" featureKey="symbolFeature-0" transform="matrix(2.7606670673076925,0,0,2.7606670673076925,107,20)" fill="#ffffff"><g xmlns="http://www.w3.org/2000/svg"><g><path d="M52.5473633,12.2211914L52.5,11.8330078l-0.3881836-0.0473633    c-4.9561157-0.611084-11.1474609,1.4676514-16.9685059,5.4731445c-0.1536865,0.0655518-0.267395,0.1517944-0.3444824,0.2314453    c-0.0006104,0.0006714-0.0007935,0.0015259-0.0014038,0.0021973c-2.0214233,1.4212036-3.9945068,3.0724487-5.8501587,4.9279785    c-2.6034546,2.6034546-4.80896,5.444458-6.5475464,8.3518677c-3.7042847,0.9384155-7.0758057,2.8461914-9.7522583,5.522644    c-0.9731445,0.9736328-1.8613281,2.059082-2.6401367,3.2260742c-0.1323242,0.1982422-0.105957,0.4624023,0.0625,0.6313477    c0.0966797,0.0961914,0.2246094,0.1459961,0.3535156,0.1459961c0.0966797,0,0.1933594-0.027832,0.2783203-0.0844727    c2.5927124-1.7357178,5.6170044-2.8483887,8.7860107-3.2570801c-0.1218872,0.3547363-0.2545776,0.7103882-0.3598022,1.0634155    c-0.7954712,1.2678223,2.171814,4.3024292,2.5274048,4.6575317c0.8999023,0.9003906,1.8417969,1.6591797,2.6518555,2.1376953    c0.6113281,0.3608398,1.1079102,0.5405273,1.4985352,0.5405273c0.1900635,0,0.3461914-0.0582275,0.4869385-0.1434937    c0.3598633-0.1068726,0.7224731-0.2424316,1.0841064-0.3666992c-0.4087524,3.1688843-1.5214844,6.1929932-3.2570801,8.7860718    c-0.1328125,0.1982422-0.1069336,0.4628906,0.0615234,0.6318359c0.0966797,0.0966797,0.2250977,0.1464844,0.3540039,0.1464844    c0.0961914,0,0.1928711-0.027832,0.277832-0.0839844c1.1694336-0.7807617,2.2543945-1.6694336,3.2250977-2.640625    c2.6767578-2.6762695,4.5846558-6.0477295,5.5228271-9.7518311c2.9074707-1.7386475,5.7485962-3.944397,8.3521729-6.5479736    C49.2036133,28.0952148,53.3779297,19.0024414,52.5473633,12.2211914z M12.3334961,38.1044922    c0.328125-0.3818359,0.668457-0.75,1.0209961-1.1025391c2.3109741-2.3105469,5.1687622-4.0140991,8.3121338-4.9802856    c-0.7059937,1.2919312-1.3088989,2.5924683-1.81073,3.8875732C17.2144165,36.1897583,14.6558838,36.9303589,12.3334961,38.1044922    z M22.3623047,41.9707031c-1.6313477-1.6308594-2.3178711-2.909668-2.3803711-3.3535156    c0.4443359,0.0629883,1.7231445,0.7495117,3.3535156,2.3803711c1.6308594,1.6303711,2.3173828,2.9091797,2.3803711,3.3535156    C25.2714844,44.2880859,23.9926758,43.6015625,22.3623047,41.9707031z M26.6477051,44.0374146    c-0.0765991-0.3162842-0.2174683-0.6713867-0.4675293-1.0950317c-0.4785156-0.8100586-1.2373047-1.7519531-2.1376953-2.6518555    c-0.8999023-0.9003906-1.8417969-1.6591797-2.6518555-2.1376953c-0.4234619-0.2496948-0.7783813-0.390625-1.0945435-0.4672852    c0.2770386-0.850769,0.6026611-1.7055054,0.9764404-2.562561c0.5764771,0.0234985,2.5629883,1.284729,4.5560913,3.3486938    c2.2133789,2.2910156,3.2407227,4.2963867,3.1845703,4.6259766c-0.0183105,0.0189819-0.0261841,0.0430298-0.0408936,0.0639648    C28.1948242,43.4928589,27.4197388,43.7860718,26.6477051,44.0374146z M27.3310547,50.9785156    c-0.3520508,0.3520508-0.7197266,0.6928711-1.1020508,1.0209961c1.1740112-2.3226929,1.9146729-4.8806152,2.1951904-7.5219727    c1.295105-0.50177,2.59552-1.1047363,3.8875122-1.810791C31.3457031,45.8100586,29.6422729,48.6677246,27.3310547,50.9785156z     M41.2060547,34.6787109c-3.4772949,3.4772949-7.3756714,6.2548828-11.2799072,8.0755005    c-0.3927612-1.8659668-3.3417358-4.9395752-3.3782959-4.977356c-1.5482788-1.6032715-3.5890503-3.2208252-4.859314-3.5858154    c1.8217163-3.8318481,4.5529785-7.6508179,7.9657593-11.0635986c1.8813477-1.8814697,3.8834229-3.5410156,5.9287109-4.961792    c0.0231934-0.0043335,0.0471802-0.0089111,0.0869141-0.0089111c0.7693481,0.0004272,2.5772705,1.0437622,4.7059937,2.975769    c-0.4265747,0.774231-0.3249512,1.7314453,0.3286743,2.3850708C41.0874023,23.9008789,41.5976562,24,42.1430664,24    c0.0087891,0,0.0175781,0,0.0263672,0c0.3012085,0,0.5906982-0.0429688,0.8577271-0.140686    c2.3641357,2.7645874,3.1622925,4.7747803,2.9627686,5.1504517C44.6092529,30.9647217,43.0079956,32.87677,41.2060547,34.6787109z     M41.4389648,21.4072266c0.2172852-0.2172852,0.5014648-0.3266602,0.7817383-0.3266602    c0.2680664,0,0.5322266,0.0996094,0.7324219,0.2998047c0.1967773,0.1967773,0.3037109,0.4614258,0.2998047,0.7451172    c-0.003418,0.2880859-0.1196289,0.5610352-0.3271484,0.7685547s-0.4804688,0.3237305-0.7685547,0.3271484    c-0.3022461,0.0424805-0.5488281-0.1025391-0.7456055-0.2998047    C41.0019531,22.5117188,41.0141602,21.8325195,41.4389648,21.4072266z M46.7947998,27.8341064    c-0.4906616-1.3887939-1.7557983-3.1398926-2.9692383-4.5719604c0.2677002-0.3305054,0.421814-0.6889038,0.4273682-1.1383057    c0.0068359-0.5551758-0.2036133-1.0895386-0.5927734-1.4782104c-0.7039795-0.7044067-1.8067627-0.7987671-2.616394-0.255188    c-1.4898682-1.3491821-3.0813599-2.5091553-4.331665-2.9859009c5.1576538-3.328125,10.5093384-5.0679321,14.8850708-4.6687012    C52.0018921,17.1733398,50.2127075,22.6118774,46.7947998,27.8341064z"/><path d="M44.7319336,16.6447754c-0.8144531,0.8154297-0.8266602,2.0734863-0.0273438,2.8728027    C45.0874023,19.9008789,45.5976562,20,46.1430664,20c0.0087891,0,0.0175781,0,0.0263672,0    c0.5507812,0,1.0708008-0.1234131,1.4633789-0.5164795c0.3930664-0.3925781,0.6132812-0.8088989,0.6201172-1.3596802    c0.0068359-0.5551758-0.2036133-1.0895386-0.5927734-1.4782104    C46.8608398,15.8458252,45.5463867,15.8303223,44.7319336,16.6447754z M46.9257812,18.894043    c-0.2075195,0.2075195-0.4804688,0.3237305-0.7685547,0.3271484c-0.3125,0.0219727-0.5483398-0.1030273-0.7456055-0.2998047    c-0.409668-0.409668-0.3974609-1.0888672,0.0273438-1.5141602c0.2172852-0.2172852,0.5014648-0.3266602,0.7817383-0.3266602    c0.2680664,0,0.5322266,0.0996094,0.7324219,0.2998047c0.1967773,0.1967773,0.3037109,0.4614258,0.2998047,0.7451172    C47.2495117,18.4135742,47.1333008,18.6865234,46.9257812,18.894043z"/><path d="M36.7319336,24.6447754c-0.8144531,0.8154297-0.8266602,2.0734863-0.0273438,2.8728027    C37.0874023,27.9008789,37.5976562,28,38.1430664,28c0.0087891,0,0.0175781,0,0.0263672,0    c0.5507812,0,1.0708008-0.1234131,1.4633789-0.5164795c0.3930664-0.3925781,0.6132812-0.8088989,0.6201172-1.3596802    c0.0068359-0.5551758-0.2036133-1.0895386-0.5927734-1.4782104    C38.8608398,23.8458252,37.5463867,23.8303223,36.7319336,24.6447754z M38.9257812,26.894043    c-0.2075195,0.2075195-0.4804688,0.3237305-0.7685547,0.3271484c-0.3227539,0.0322266-0.5488281-0.1025391-0.7456055-0.2998047    c-0.409668-0.409668-0.3974609-1.0888672,0.0273438-1.5141602c0.2172852-0.2172852,0.5014648-0.3266602,0.7817383-0.3266602    c0.2680664,0,0.5322266,0.0996094,0.7324219,0.2998047c0.1967773,0.1967773,0.3037109,0.4614258,0.2998047,0.7451172    C39.2495117,26.4135742,39.1333008,26.6865234,38.9257812,26.894043z"/><path d="M20.3535156,43.5629883c-0.1953125-0.1953125-0.5117188-0.1953125-0.7070312,0l-9.9550781,9.9550781    c-0.1953125,0.1953125-0.1953125,0.5117188,0,0.7070312c0.0976562,0.0976562,0.2255859,0.1464844,0.3535156,0.1464844    s0.2558594-0.0488281,0.3535156-0.1464844l9.9550781-9.9550781C20.5488281,44.074707,20.5488281,43.7583008,20.3535156,43.5629883    z"/><path d="M20.7529297,44.5727539l-6.144043,9.0566406c-0.1552734,0.2285156-0.0957031,0.5395508,0.1328125,0.6943359    c0.0859375,0.0585938,0.1835938,0.0864258,0.2802734,0.0864258c0.1601562,0,0.3173828-0.0766602,0.4140625-0.2192383    l6.144043-9.0566406c0.1552734-0.2285156,0.0957031-0.5395508-0.1328125-0.6943359    C21.2202148,44.284668,20.9082031,44.3442383,20.7529297,44.5727539z"/><path d="M10.0454102,49.394043c0.0957031,0,0.1923828-0.0273438,0.277832-0.0849609l8.7885742-5.894043    c0.2294922-0.1538086,0.2905273-0.4643555,0.1367188-0.6933594c-0.1533203-0.2304688-0.4648438-0.2915039-0.6933594-0.1367188    l-8.7885742,5.894043c-0.2294922,0.1538086-0.2905273,0.4643555-0.1367188,0.6933594    C9.7260742,49.3164062,9.8842773,49.394043,10.0454102,49.394043z"/></g></g><g xmlns="http://www.w3.org/2000/svg"><rect width="64" height="64" style="fill: none;"/></g></g><g id="SvgjsG15312" featureKey="nameFeature-0" transform="matrix(1.8542457252294264,0,0,1.8542457252294264,17.849076125842572,195.78743144979435)" fill="#ffffff"><path d="M10.64 18.76 c2.7733 0 4.94 0.56004 6.5 1.68 s2.4333 2.76 2.62 4.92 l-5.4 0 c-0.08 -0.98668 -0.44 -1.7 -1.08 -2.14 s-1.5733 -0.66 -2.8 -0.66 c-1.0667 0 -1.86 0.16 -2.38 0.48 s-0.78 0.8 -0.78 1.44 c0 0.48 0.17332 0.88 0.52 1.2 s0.87336 0.6 1.58 0.84 s1.4867 0.44 2.34 0.6 c2.5867 0.50668 4.4132 1.0267 5.48 1.56 s1.8467 1.1733 2.34 1.92 s0.74 1.6667 0.74 2.76 c0 2.32 -0.84668 4.1 -2.54 5.34 s-3.9933 1.86 -6.9 1.86 c-3.04 0 -5.4068 -0.65332 -7.1 -1.96 s-2.5666 -3.08 -2.62 -5.32 l5.4 0 c0 1.0667 0.41332 1.9134 1.24 2.54 s1.8667 0.94 3.12 0.94 c1.0667 0 1.9534 -0.23332 2.66 -0.7 s1.06 -1.1134 1.06 -1.94 c0 -0.53332 -0.22 -0.97332 -0.66 -1.32 s-1.06 -0.65336 -1.86 -0.92004 s-2.04 -0.57336 -3.72 -0.92004 c-1.3333 -0.26668 -2.52 -0.62668 -3.56 -1.08 s-1.8333 -1.0466 -2.38 -1.78 s-0.82 -1.6333 -0.82 -2.7 c0 -1.36 0.32668 -2.5467 0.98 -3.56 s1.6533 -1.78 3 -2.3 s3.02 -0.78 5.02 -0.78 z M28.933 11.440000000000001 l0 15.32 l7.16 -7.44 l6.72 0 l-7.8 7.6 l8.68 13.08 l-6.88 0 l-5.68 -9.24 l-2.2 2.12 l0 7.12 l-5.68 0 l0 -28.56 l5.68 0 z M50.626000000000005 11.440000000000001 l0 4.68 l-5.68 0 l0 -4.68 l5.68 0 z M50.626000000000005 19.32 l0 20.68 l-5.68 0 l0 -20.68 l5.68 0 z M60.039 11.440000000000001 l0 28.56 l-5.68 0 l0 -28.56 l5.68 0 z M69.452 11.440000000000001 l0 28.56 l-5.68 0 l0 -28.56 l5.68 0 z M81.505 18.76 c2.7733 0 4.94 0.56004 6.5 1.68 s2.4333 2.76 2.62 4.92 l-5.4 0 c-0.08 -0.98668 -0.44 -1.7 -1.08 -2.14 s-1.5733 -0.66 -2.8 -0.66 c-1.0667 0 -1.86 0.16 -2.38 0.48 s-0.78 0.8 -0.78 1.44 c0 0.48 0.17332 0.88 0.52 1.2 s0.87336 0.6 1.58 0.84 s1.4867 0.44 2.34 0.6 c2.5867 0.50668 4.4132 1.0267 5.48 1.56 s1.8467 1.1733 2.34 1.92 s0.74 1.6667 0.74 2.76 c0 2.32 -0.84668 4.1 -2.54 5.34 s-3.9933 1.86 -6.9 1.86 c-3.04 0 -5.4068 -0.65332 -7.1 -1.96 s-2.5666 -3.08 -2.62 -5.32 l5.4 0 c0 1.0667 0.41332 1.9134 1.24 2.54 s1.8667 0.94 3.12 0.94 c1.0667 0 1.9534 -0.23332 2.66 -0.7 s1.06 -1.1134 1.06 -1.94 c0 -0.53332 -0.22 -0.97332 -0.66 -1.32 s-1.06 -0.65336 -1.86 -0.92004 s-2.04 -0.57336 -3.72 -0.92004 c-1.3333 -0.26668 -2.52 -0.62668 -3.56 -1.08 s-1.8333 -1.0466 -2.38 -1.78 s-0.82 -1.6333 -0.82 -2.7 c0 -1.36 0.32668 -2.5467 0.98 -3.56 s1.6533 -1.78 3 -2.3 s3.02 -0.78 5.02 -0.78 z M103.15799999999999 18.76 c1.9467 0 3.6801 0.45328 5.2 1.36 s2.7133 2.22 3.58 3.94 s1.3 3.7 1.3 5.94 c0 0.21332 -0.01332 0.56 -0.04 1.04 l-14.92 0 c0.05332 1.6533 0.48664 2.94 1.3 3.86 s2.06 1.38 3.74 1.38 c1.04 0 1.9933 -0.26 2.86 -0.78 s1.42 -1.1533 1.66 -1.9 l5 0 c-1.4667 4.64 -4.6932 6.96 -9.68 6.96 c-1.8933 -0.02668 -3.6466 -0.44 -5.26 -1.24 s-2.9 -2.0467 -3.86 -3.74 s-1.44 -3.66 -1.44 -5.9 c0 -2.1067 0.48668 -4.0268 1.46 -5.76 s2.2666 -3.0266 3.88 -3.88 s3.3533 -1.28 5.22 -1.28 z M107.51799999999999 27.439999999999998 c-0.26668 -1.5467 -0.76 -2.6667 -1.48 -3.36 s-1.7467 -1.04 -3.08 -1.04 c-1.3867 0 -2.48 0.39332 -3.28 1.18 s-1.2667 1.86 -1.4 3.22 l9.24 0 z M122.85099999999998 13.120000000000001 l0.000039062 6.2 l4.16 0 l0 3.8 l-4.16 0 l0 10.24 c0 0.96 0.16 1.6 0.48 1.92 s0.96 0.48 1.92 0.48 c0.69332 0 1.28 -0.05332 1.76 -0.16 l0 4.44 c-0.8 0.13332 -1.92 0.2 -3.36 0.2 c-2.1867 0 -3.8134 -0.37332 -4.88 -1.12 s-1.6 -2.04 -1.6 -3.88 l0 -12.12 l-3.44 0 l0 -3.8 l3.44 0 l0 -6.2 l5.68 0 z M135.344 33.84 l0 6.16 l-6.28 0 l0 -6.16 l6.28 0 z M144.87699999999998 11.440000000000001 l0 28.56 l-5.68 0 l0 -28.56 l5.68 0 z M154.29 11.440000000000001 l0 4.68 l-5.68 0 l0 -4.68 l5.68 0 z M154.29 19.32 l0 20.68 l-5.68 0 l0 -20.68 l5.68 0 z M166.023 11.440000000000001 c0.48 0 1.48 0.05336 3 0.16004 l0 4.24 c-0.74668 -0.08 -1.4267 -0.12 -2.04 -0.12 c-0.82668 0 -1.4 0.18 -1.72 0.54 s-0.48 0.98 -0.48 1.86 l0 1.2 l3.92 0 l0 3.8 l-3.92 0 l0 16.88 l-5.68 0 l0 -16.88 l-3.4 0 l0 -3.8 l3.4 0 l0 -1.52 c0 -2.0267 0.60668 -3.5934 1.82 -4.7 s2.9133 -1.66 5.1 -1.66 z M179.836 18.76 c1.9467 0 3.6801 0.45328 5.2 1.36 s2.7133 2.22 3.58 3.94 s1.3 3.7 1.3 5.94 c0 0.21332 -0.01332 0.56 -0.04 1.04 l-14.92 0 c0.05332 1.6533 0.48664 2.94 1.3 3.86 s2.06 1.38 3.74 1.38 c1.04 0 1.9933 -0.26 2.86 -0.78 s1.42 -1.1533 1.66 -1.9 l5 0 c-1.4667 4.64 -4.6932 6.96 -9.68 6.96 c-1.8933 -0.02668 -3.6466 -0.44 -5.26 -1.24 s-2.9 -2.0467 -3.86 -3.74 s-1.44 -3.66 -1.44 -5.9 c0 -2.1067 0.48668 -4.0268 1.46 -5.76 s2.2666 -3.0266 3.88 -3.88 s3.3533 -1.28 5.22 -1.28 z M184.19600000000003 27.439999999999998 c-0.26668 -1.5467 -0.76 -2.6667 -1.48 -3.36 s-1.7467 -1.04 -3.08 -1.04 c-1.3867 0 -2.48 0.39332 -3.28 1.18 s-1.2667 1.86 -1.4 3.22 l9.24 0 z"/></g>
			</g>
		</svg>
	