<?xml version="1.0" standalone="no"?>
<!DOCTYPE svg PUBLIC "-//W3C//DTD SVG 20010904//EN"
 "http://www.w3.org/TR/2001/REC-SVG-20010904/DTD/svg10.dtd">
<svg version="1.0" xmlns="http://www.w3.org/2000/svg"
 width="1125.000000pt" height="750.000000pt" viewBox="0 0 1125.000000 750.000000"
 preserveAspectRatio="xMidYMid meet">

<g transform="translate(0.000000,750.000000) scale(0.100000,-0.100000)"
fill="#000000" stroke="none">
<path d="M9217 7493 c-4 -3 -7 -75 -7 -160 0 -150 -1 -154 -22 -163 -13 -5
-93 -18 -178 -30 -85 -12 -162 -26 -171 -30 -20 -11 -28 -111 -34 -465 -3
-137 -7 -276 -9 -308 -4 -61 -21 -94 -40 -78 -17 14 -89 22 -105 12 -16 -11
-55 1 -77 24 -9 8 -28 15 -43 15 -15 0 -31 3 -34 6 -4 4 -21 8 -39 10 -18 1
-55 5 -82 8 -35 3 -53 1 -63 -10 -8 -8 -21 -14 -29 -14 -18 0 -70 26 -103 52
-22 16 -26 17 -41 3 -9 -8 -24 -15 -33 -15 -9 0 -20 -6 -24 -13 -15 -25 -43
-27 -90 -5 -35 16 -49 19 -63 10 -14 -8 -22 -7 -39 9 -11 11 -21 26 -21 33 0
21 -34 46 -63 46 -20 0 -33 -9 -47 -32 -11 -18 -20 -41 -20 -50 0 -10 -12 -25
-26 -35 -26 -16 -28 -16 -66 6 -39 22 -40 22 -56 3 -29 -33 -53 -41 -81 -29
-35 16 -55 36 -75 74 -11 23 -27 35 -53 42 -32 9 -39 7 -65 -14 -34 -29 -76
-32 -119 -9 -28 14 -32 14 -48 0 -10 -9 -24 -16 -32 -16 -9 0 -24 -7 -35 -15
-32 -24 -59 -18 -88 20 -33 43 -67 47 -84 10 -8 -17 -23 -28 -43 -32 -23 -4
-35 -14 -43 -35 -6 -15 -17 -29 -26 -29 -28 -2 -45 3 -53 17 -12 20 -24 18
-74 -16 -24 -16 -48 -30 -53 -30 -5 0 -33 18 -62 40 -55 41 -76 48 -95 29 -20
-20 -56 -6 -67 27 -14 40 -89 124 -110 124 -9 0 -25 -5 -35 -12 -15 -9 -28 -9
-59 1 -38 13 -111 11 -159 -4 -17 -5 -28 0 -48 21 l-25 27 -21 -21 c-23 -26
-35 -27 -82 -7 -27 11 -36 21 -39 42 -3 27 -6 28 -58 29 -30 1 -67 -5 -82 -12
-15 -8 -38 -14 -53 -14 -14 0 -25 -6 -25 -12 -1 -7 -26 -33 -56 -58 -31 -25
-57 -56 -60 -70 -10 -46 -13 -50 -35 -50 -11 0 -34 -11 -51 -25 -22 -18 -41
-25 -73 -25 -24 0 -47 5 -51 11 -4 7 -23 9 -49 6 -51 -7 -65 4 -65 52 0 61
-10 79 -51 95 -52 21 -60 20 -104 -10 -27 -18 -47 -24 -66 -20 -23 4 -28 1
-33 -19 -4 -16 -13 -25 -27 -25 -11 0 -34 -16 -52 -35 -29 -31 -37 -34 -92
-35 -101 -2 -193 8 -219 25 -16 11 -26 13 -31 6 -16 -27 -160 -4 -188 30 -11
14 -25 20 -41 17 -19 -4 -27 2 -40 29 -9 18 -16 40 -16 47 0 8 -7 20 -16 27
-14 11 -20 9 -43 -20 -22 -27 -29 -31 -34 -18 -3 8 -14 14 -23 13 -13 -2 -22
-20 -32 -64 -12 -55 -16 -62 -38 -62 -16 0 -27 8 -33 23 -5 13 -21 31 -35 40
-14 10 -32 30 -40 46 -22 41 -45 47 -74 17 -21 -21 -23 -28 -14 -53 14 -41 -8
-93 -40 -93 -18 0 -27 11 -43 47 -11 26 -33 62 -49 81 -16 18 -36 47 -45 64
-9 18 -23 34 -31 36 -9 3 -8 -1 4 -11 18 -13 18 -18 6 -46 -7 -17 -21 -36 -31
-42 -10 -5 -18 -17 -17 -27 5 -67 -14 -84 -67 -59 -26 12 -37 27 -49 65 -19
55 -41 72 -61 46 -6 -10 -17 -14 -23 -10 -5 3 -12 1 -14 -5 -5 -15 -47 5 -70
34 -14 18 -19 19 -32 8 -9 -7 -16 -19 -16 -26 0 -7 -14 -27 -32 -44 -28 -27
-38 -31 -89 -31 -53 0 -58 2 -83 35 -15 19 -33 35 -40 35 -6 0 -27 -15 -45
-34 -20 -21 -46 -36 -67 -39 -20 -3 -51 -20 -70 -36 -19 -17 -47 -34 -61 -37
-15 -4 -34 -15 -43 -25 -10 -13 -35 -20 -79 -24 -57 -5 -68 -3 -102 20 -45 30
-47 30 -88 9 -24 -12 -36 -13 -44 -5 -18 18 -55 13 -67 -9 -12 -23 -82 -44
-113 -34 -12 4 -57 8 -100 10 -43 1 -84 8 -92 14 -16 13 -65 6 -65 -10 0 -5
-18 -22 -41 -37 -35 -23 -50 -27 -103 -25 -56 2 -64 6 -93 37 -18 19 -37 35
-44 35 -7 0 -27 11 -45 25 -39 29 -65 27 -109 -11 -17 -14 -41 -24 -59 -24
-24 0 -41 -11 -81 -55 -29 -31 -60 -55 -71 -55 -36 0 -58 25 -58 67 -1 28 -9
49 -28 72 -16 18 -28 37 -28 42 0 5 -9 9 -20 9 -11 0 -20 -4 -20 -10 0 -5 -8
-10 -18 -10 -14 0 -17 6 -14 33 3 23 -2 39 -13 51 -23 22 -37 16 -47 -19 -4
-16 -16 -38 -27 -49 -11 -12 -30 -31 -41 -44 -23 -25 -38 -25 -54 0 -7 12 -5
28 9 57 21 48 16 56 -37 66 -44 8 -59 -11 -36 -44 15 -21 13 -81 -2 -81 -4 0
-7 -8 -6 -17 0 -9 -9 -22 -22 -29 -28 -14 -9 -25 30 -17 15 3 34 0 45 -6 17
-10 17 -10 0 -11 -9 0 -16 -5 -15 -12 2 -6 -6 -14 -17 -16 -11 -2 -27 -10 -36
-18 -24 -21 -73 -2 -64 25 5 15 -1 24 -25 36 -17 9 -36 27 -42 39 -5 13 -22
29 -37 36 -14 7 -33 16 -41 20 -8 4 -18 27 -22 50 -10 57 -24 69 -79 71 -50 2
-69 -5 -69 -25 0 -7 -7 -28 -16 -46 -14 -28 -15 -38 -3 -74 14 -47 14 -58 -8
-104 l-16 -34 -61 7 c-83 9 -135 25 -150 46 -11 16 -15 17 -33 4 -17 -12 -23
-12 -39 -1 -15 11 -20 11 -31 0 -7 -7 -13 -17 -13 -22 0 -19 -52 -44 -81 -40
l-29 5 2 -1531 c3 -1468 4 -1531 21 -1534 10 -2 26 0 35 3 9 4 37 7 62 6 25
-1 59 3 75 10 18 7 104 13 220 15 187 4 218 6 323 20 63 8 143 -11 135 -32 -3
-8 0 -14 6 -14 6 0 11 6 11 14 0 24 17 28 49 11 33 -17 65 -20 56 -6 -10 18
13 21 42 7 49 -26 66 -29 140 -27 68 3 71 2 66 -18 -4 -16 -14 -21 -42 -22
-20 -1 -40 -1 -44 0 -92 16 -130 17 -143 3 -16 -15 -43 -18 -86 -7 -15 4 -36
4 -45 0 -10 -5 -48 -7 -85 -6 -38 2 -68 -1 -68 -6 0 -5 -17 -7 -39 -5 -34 3
-39 1 -45 -22 -3 -14 -13 -26 -20 -26 -25 0 -46 12 -46 26 0 11 -18 13 -92 8
-125 -7 -158 -13 -158 -27 0 -8 -3 -8 -8 -2 -8 12 -176 14 -188 3 -4 -5 -29
-8 -55 -8 -72 0 -79 -5 -79 -59 0 -45 1 -47 38 -58 52 -16 122 -6 122 18 0 13
5 16 16 12 11 -4 15 -15 12 -35 -5 -32 8 -46 25 -29 8 8 8 11 -1 11 -7 0 -12
9 -12 20 0 17 7 19 60 19 54 -1 60 -3 60 -22 0 -19 1 -20 20 -2 11 10 20 24
20 32 0 7 9 13 20 13 11 0 20 7 20 15 0 19 29 19 36 0 7 -17 44 -21 44 -5 0 6
9 10 20 10 28 0 26 -37 -2 -61 -19 -15 -20 -18 -6 -19 9 0 23 -3 32 -6 11 -4
16 -1 16 10 0 9 5 16 10 16 6 0 10 14 10 31 0 27 3 30 27 28 53 -4 72 1 78 21
9 30 27 24 23 -7 -2 -20 2 -29 15 -31 9 -2 17 1 17 7 0 6 7 11 16 11 9 0 24
10 34 22 17 21 20 22 77 10 39 -8 69 -9 88 -3 17 6 64 14 105 19 70 8 76 7 99
-14 18 -17 29 -20 41 -14 10 5 20 7 23 4 3 -3 10 4 17 15 6 13 21 21 35 21 18
0 25 5 25 20 0 18 3 19 21 9 15 -7 24 -8 32 0 7 7 17 3 33 -16 l22 -26 28 22
c23 18 36 21 69 16 66 -10 105 -26 105 -41 0 -11 6 -13 20 -9 13 4 25 -1 37
-14 10 -12 21 -21 25 -21 11 0 10 44 0 55 -14 16 -2 105 14 105 8 0 14 -9 14
-20 0 -15 9 -22 30 -26 38 -8 38 -20 0 -27 -27 -6 -43 -27 -20 -27 6 0 10 5
10 10 0 6 9 10 20 10 11 0 20 -7 20 -15 0 -8 4 -15 9 -15 5 0 16 7 25 15 8 8
22 15 31 15 9 0 15 6 13 14 -3 17 1 18 42 10 17 -4 27 -11 23 -17 -4 -6 0 -8
10 -4 12 5 19 -1 23 -18 5 -19 13 -25 33 -25 15 0 21 -3 14 -8 -13 -8 -13 -29
0 -49 5 -8 3 -13 -7 -13 -9 0 -16 -5 -16 -11 0 -5 5 -7 11 -3 12 7 3 -110 -11
-135 -4 -7 -3 -31 3 -53 12 -47 -3 -91 -28 -82 -8 3 -15 1 -15 -6 0 -6 4 -9 9
-6 5 3 11 -3 14 -14 4 -14 -2 -24 -16 -32 -31 -16 -46 -39 -47 -70 0 -23 4
-28 23 -28 15 0 29 -9 37 -25 13 -25 40 -35 40 -15 0 6 7 10 15 10 8 0 15 6
15 13 0 8 3 7 10 -3 5 -8 6 -17 2 -20 -4 -3 -7 -11 -6 -17 1 -7 2 -23 3 -35 1
-17 4 -19 10 -10 10 17 21 -6 21 -46 0 -25 1 -25 15 -6 14 18 14 18 15 -4 0
-13 4 -20 10 -17 6 4 9 27 6 53 -5 69 8 99 44 98 25 -1 29 -4 24 -21 -4 -13
-3 -17 4 -10 5 6 19 48 29 94 11 47 25 87 31 89 7 2 12 -4 12 -12 0 -9 21 -31
46 -49 26 -17 53 -36 60 -42 12 -8 11 -18 -1 -59 -8 -27 -12 -60 -8 -74 4 -16
2 -23 -4 -19 -6 4 -17 -11 -26 -33 -13 -34 -13 -40 -1 -40 8 0 14 -7 14 -15 0
-8 5 -15 10 -15 6 0 10 -7 10 -15 0 -10 6 -12 18 -8 24 9 42 29 34 37 -3 4 1
4 9 1 10 -4 124 59 300 163 156 93 348 207 426 253 136 80 160 99 129 99 -8 0
-21 6 -28 13 -7 7 -33 22 -58 34 -53 25 -73 47 -91 99 -18 55 -12 175 12 237
26 65 92 193 101 196 40 12 100 45 90 49 -7 2 -30 -6 -52 -17 -22 -11 -40 -19
-40 -18 0 18 99 222 109 225 10 3 12 0 7 -13 -5 -13 -2 -16 9 -11 9 3 41 -6
71 -19 31 -14 73 -29 94 -35 21 -6 45 -21 53 -34 15 -22 14 -25 -19 -57 -19
-18 -34 -28 -34 -22 0 6 5 13 10 15 16 5 -28 48 -49 48 -10 0 -24 -7 -31 -15
-7 -8 -23 -15 -36 -15 -13 0 -24 -5 -24 -11 0 -8 17 -10 50 -7 43 4 47 3 32
-8 -9 -7 -26 -14 -37 -14 -11 0 -27 -5 -35 -10 -11 -7 -3 -10 30 -10 33 0 41
-3 30 -10 -8 -5 -23 -7 -34 -4 -12 4 -16 2 -12 -5 5 -7 -4 -14 -24 -17 -32 -7
-51 -23 -28 -25 7 -1 2 -4 -12 -9 l-25 -7 28 -12 c15 -6 39 -16 55 -22 l27
-11 -45 -18 c-25 -11 -63 -19 -86 -19 -22 -1 -44 -4 -47 -8 -4 -3 32 -29 79
-56 47 -28 89 -57 92 -65 12 -31 51 -60 126 -91 68 -28 83 -31 102 -20 33 17
78 5 131 -36 66 -50 75 -43 19 14 -27 27 -54 47 -61 45 -6 -3 -18 3 -26 13
-13 16 -12 17 4 4 43 -34 19 1 -57 81 -46 48 -81 90 -78 93 3 2 58 -49 123
-115 64 -66 125 -120 135 -120 9 0 15 -3 11 -6 -8 -9 73 -114 88 -114 7 0 23
-8 36 -19 l23 -18 -38 -5 c-39 -4 -66 10 -66 37 0 21 -33 28 -47 9 -14 -19 -9
-34 13 -34 8 0 14 -5 14 -11 0 -5 4 -7 10 -4 5 3 21 -1 34 -10 14 -9 31 -13
37 -9 7 4 9 3 5 -4 -4 -7 7 -12 31 -14 l38 -4 -29 -8 c-21 -7 -39 -4 -71 12
-24 11 -59 24 -78 27 -35 7 -36 6 -32 -21 2 -16 4 -32 4 -36 1 -5 21 -8 46 -8
34 0 48 -5 57 -20 16 -26 33 -25 51 1 13 17 18 19 34 9 22 -14 41 -100 35
-155 -4 -35 -12 -40 -117 -82 l-30 -12 36 0 c19 -1 44 6 55 14 26 20 62 19 68
-2 2 -10 12 -94 21 -188 9 -93 20 -180 25 -192 5 -12 22 -25 37 -29 15 -4 33
-10 38 -15 6 -4 291 -14 635 -23 344 -9 773 -21 954 -27 181 -6 348 -8 370 -5
40 6 42 8 60 69 11 34 30 86 43 116 51 116 66 171 57 214 -7 32 -15 42 -34 47
-20 5 -16 8 24 13 27 4 78 7 114 7 92 0 70 11 -28 15 -44 1 -84 5 -87 9 -3 3
1 6 10 6 9 0 17 5 17 11 0 7 -28 9 -84 6 -80 -4 -84 -3 -94 19 -6 13 -11 104
-12 211 -2 259 -2 253 13 247 7 -2 28 10 47 27 68 61 99 59 181 -13 29 -27 58
-48 64 -48 6 0 18 9 28 20 19 23 34 25 74 8 l28 -11 -30 -7 c-29 -6 -28 -7 15
-14 25 -5 53 -15 63 -24 16 -14 22 -14 67 0 47 15 95 14 85 -1 -2 -4 -29 -14
-61 -21 -31 -8 -57 -18 -59 -24 -2 -6 -6 -23 -9 -38 -6 -25 -11 -28 -45 -28
-21 0 -60 -7 -87 -15 -66 -20 -68 -20 -109 16 -34 30 -43 56 -10 29 9 -7 18
-11 20 -8 11 11 -8 35 -57 71 -39 29 -54 35 -64 26 -11 -9 -8 -16 16 -39 26
-25 29 -32 20 -55 -13 -34 -13 -45 2 -45 14 0 78 -42 78 -52 0 -4 -14 -2 -31
4 -16 6 -33 8 -36 5 -4 -5 -9 -32 -12 -80 -1 -5 -13 -7 -28 -6 -16 1 -43 1
-61 1 -27 -2 -31 -4 -20 -16 7 -7 19 -11 26 -9 8 3 10 0 6 -10 -3 -8 -1 -18 5
-22 6 -3 14 0 17 9 3 8 15 14 26 13 17 -1 19 -7 16 -40 l-4 -40 26 32 c26 31
53 40 65 21 3 -5 9 -29 13 -52 9 -49 30 -60 61 -29 11 11 21 16 23 12 4 -10
48 5 48 16 0 4 -9 19 -20 33 -20 25 -20 25 -36 5 -16 -20 -16 -20 -9 2 5 18 3
22 -8 17 -19 -7 -25 3 -33 54 l-6 41 38 3 c38 3 39 4 38 40 -1 21 4 39 11 42
8 3 11 -2 8 -15 -4 -15 -2 -18 13 -13 11 4 24 11 31 16 19 15 34 -1 30 -30 -2
-18 -11 -28 -28 -33 -20 -5 -14 -8 32 -19 47 -10 56 -16 52 -31 -3 -10 -8 -18
-12 -17 -22 2 -51 -3 -51 -11 0 -5 13 -14 30 -19 28 -10 52 -8 163 15 25 5 27
3 27 -25 0 -28 -4 -32 -42 -43 -23 -6 -58 -8 -77 -5 -20 3 -31 2 -25 -4 5 -5
36 -10 69 -11 73 -3 88 -7 81 -25 -3 -8 1 -14 9 -14 8 0 18 -7 22 -15 8 -14
14 -14 58 0 28 8 63 15 78 15 16 0 38 6 50 12 27 16 126 38 190 43 26 2 63 9
83 15 19 7 41 9 49 6 8 -3 27 -1 42 4 15 4 71 11 123 14 113 7 171 15 187 28
6 5 63 16 125 24 62 8 121 17 131 20 13 4 17 0 17 -18 0 -28 -29 -277 -35
-298 -2 -8 -6 -42 -10 -75 -3 -33 -8 -67 -10 -75 -2 -8 -6 -35 -9 -60 -5 -41
-46 -364 -96 -749 -20 -162 -28 -176 -90 -167 -75 11 -655 18 -640 7 8 -6 36
-11 63 -11 37 0 47 -4 47 -16 0 -15 10 -16 80 -11 83 5 120 1 120 -14 0 -5 -9
-9 -21 -9 -11 0 -17 -4 -14 -10 3 -5 19 -10 36 -10 16 0 29 -4 29 -10 0 -5 -7
-10 -15 -10 -8 0 -15 -4 -15 -10 0 -6 70 -10 188 -11 103 -1 179 -3 169 -6 -9
-2 -15 -9 -12 -14 7 -11 25 -11 -250 1 -121 6 -296 13 -390 16 -93 3 -226 9
-295 14 -69 4 -168 8 -220 8 -52 1 -133 5 -180 11 -47 5 -170 12 -275 16 -104
3 -215 8 -245 10 -233 18 -415 25 -418 15 -4 -12 -42 -14 -42 -2 0 5 -6 9 -12
9 -7 1 -89 6 -183 12 -204 12 -523 27 -620 29 -115 2 -281 10 -332 16 -27 3
-97 8 -158 11 -115 5 -189 9 -445 25 -302 18 -585 24 -606 12 -10 -6 -14 -12
-7 -12 7 0 1 -12 -12 -26 -13 -14 -27 -35 -31 -47 -3 -11 -22 -35 -41 -54 -19
-19 -32 -38 -29 -41 3 -3 -4 -10 -17 -17 -12 -6 -21 -17 -19 -24 1 -6 -8 -15
-20 -20 -13 -5 -33 -18 -45 -30 l-21 -20 -14 21 c-8 13 -26 21 -43 22 -23 1
-34 10 -57 47 -29 48 -30 92 -2 68 11 -9 17 -9 28 0 11 9 15 9 19 -1 2 -7 7
10 11 37 4 28 11 65 16 84 12 43 6 51 -29 47 -34 -4 -84 -47 -86 -73 0 -10 -5
-25 -10 -32 -18 -31 -21 -76 -6 -89 14 -11 14 -13 1 -9 -8 2 -20 -3 -26 -11
-14 -20 -47 -8 -64 23 -7 14 -17 25 -22 25 -5 0 -6 -4 -3 -10 3 -5 3 -10 -2
-10 -15 1 -43 27 -43 40 0 10 3 10 15 0 9 -7 18 -10 22 -6 3 3 0 6 -8 6 -11 0
-11 2 1 10 10 6 11 10 3 10 -7 0 -13 8 -13 18 0 9 -11 27 -24 39 -13 13 -27
37 -31 55 l-8 33 -6 -30 -7 -30 -28 30 -29 30 8 -35 c4 -19 10 -46 12 -60 l6
-25 -25 23 c-30 27 -38 28 -38 2 0 -19 -2 -20 -29 -5 -17 8 -36 24 -44 36 -14
19 -16 20 -25 3 -9 -17 -11 -17 -27 -1 -9 10 -21 14 -27 11 -11 -7 -48 29 -48
46 0 12 -41 30 -52 23 -15 -8 -8 -55 12 -80 11 -14 17 -29 14 -34 -2 -5 2 -19
10 -31 8 -13 17 -39 21 -58 4 -19 11 -40 16 -46 5 -6 9 -26 10 -45 2 -19 6
-38 9 -44 12 -17 62 -175 66 -208 2 -18 8 -50 13 -72 5 -22 10 -74 11 -115 3
-120 2 -130 -15 -124 -8 4 -15 1 -15 -6 0 -13 -43 -3 -48 12 -2 5 -10 4 -17
-2 -12 -10 -11 -17 3 -43 21 -39 22 -65 2 -77 -10 -7 -1 -8 29 -5 24 2 49 9
55 15 8 8 7 10 -5 5 -18 -7 -35 23 -21 37 13 13 42 -2 42 -21 0 -71 -25 -239
-38 -253 -8 -10 -11 -18 -6 -18 5 0 -2 -7 -14 -16 -12 -8 -22 -24 -22 -35 0
-11 -7 -22 -15 -25 -8 -4 -15 -17 -15 -30 0 -21 4 -24 25 -18 15 4 25 2 25 -5
0 -8 67 -11 225 -11 189 0 232 3 263 17 20 9 39 17 42 17 3 1 17 10 32 20 35
23 57 15 64 -24 5 -21 12 -30 26 -30 20 0 21 15 2 63 -3 10 5 19 25 28 17 8
31 17 31 21 0 9 44 32 80 43 24 7 24 7 5 -9 -19 -15 -19 -15 16 -16 36 0 37
-1 44 -47 l8 -48 9 42 c9 40 32 72 45 59 3 -3 -1 -14 -9 -23 -9 -10 -18 -39
-20 -65 -3 -46 -2 -48 24 -48 14 0 29 6 31 13 4 9 6 9 6 0 1 -20 400 -18 427
2 19 14 19 14 -3 15 -19 0 -20 3 -11 34 8 25 24 42 64 66 29 17 58 29 65 25 6
-4 20 3 33 18 11 15 45 36 75 47 l53 21 -6 -33 c-3 -18 -8 -52 -12 -76 -6 -39
-9 -42 -38 -43 l-31 -2 29 -4 c29 -5 29 -5 -15 -25 -24 -11 -69 -28 -99 -38
l-55 -18 47 -1 c26 -1 69 5 95 11 37 10 47 10 50 1 4 -10 58 -13 229 -13 l224
0 6 25 c3 14 11 25 17 25 6 0 8 3 4 6 -3 4 0 22 8 40 8 19 11 34 7 34 -4 0 -1
4 7 9 9 6 19 4 28 -4 17 -18 17 -29 -1 -22 -11 4 -13 1 -9 -10 4 -10 2 -14 -5
-9 -7 4 -8 -2 -2 -24 7 -23 5 -30 -6 -30 -8 0 -14 -7 -14 -16 0 -10 -6 -14
-15 -10 -8 3 -15 1 -15 -4 0 -6 22 -10 49 -10 l49 0 33 91 c18 51 43 104 55
118 27 31 30 15 8 -37 -22 -52 -53 -144 -54 -159 0 -10 79 -13 360 -13 342 0
363 1 400 20 l40 20 0 -20 c0 -17 7 -20 40 -20 37 0 40 2 40 28 l1 27 17 -28
c18 -29 56 -39 46 -12 -4 8 -10 15 -15 15 -5 0 -9 7 -9 15 0 9 21 20 58 30 31
9 70 21 86 26 34 11 31 13 39 -28 6 -31 5 -33 -22 -33 -25 0 -41 -15 -41 -36
0 -9 399 -2 402 7 2 5 31 18 66 28 l62 19 0 -29 0 -29 1959 0 c1558 0 1960 3
1964 13 4 9 6 9 6 -1 1 -10 56 -12 254 -12 221 1 250 3 233 16 -26 18 -16 18
20 -1 25 -13 91 -15 432 -14 l402 1 0 78 c0 91 -5 110 -31 110 -10 0 -19 7
-19 15 0 18 -26 20 -33 3 -3 -7 -6 -5 -6 6 -1 18 -2 18 -19 3 -13 -12 -21 -14
-29 -6 -7 7 -19 3 -39 -16 -16 -15 -30 -22 -32 -16 -5 15 -42 14 -42 0 0 -8
-13 -9 -39 -5 -22 3 -41 2 -43 -3 -3 -10 -29 -14 -68 -11 -18 1 -12 5 25 16
28 8 86 26 130 39 85 26 170 29 212 7 12 -7 24 -12 27 -12 12 0 6 49 -6 53
-10 4 -10 6 0 6 9 1 12 41 11 171 l0 170 -29 0 c-16 0 -36 3 -45 6 -9 4 -15 3
-13 -2 5 -16 -12 -16 -64 1 -50 16 -113 55 -89 55 6 0 11 5 11 10 0 6 -11 10
-25 10 -14 0 -25 5 -25 11 0 5 -5 7 -12 3 -7 -4 -8 -3 -4 4 4 7 25 12 47 12
22 0 38 4 35 8 -2 4 12 9 32 10 20 2 56 9 80 17 23 8 56 15 72 15 28 0 30 2
30 40 0 49 -17 52 -90 14 -40 -21 -53 -24 -64 -14 -11 8 -20 9 -35 0 -13 -7
-28 -7 -38 -2 -10 5 -35 12 -56 16 -30 6 -37 11 -33 23 5 13 1 14 -26 9 -30
-6 -31 -5 -13 8 18 14 18 15 3 16 -26 0 -22 18 5 24 12 2 3 4 -20 3 -24 -2
-43 1 -43 5 0 8 26 11 95 12 17 1 36 -4 42 -11 14 -13 52 -6 71 14 18 17 32
17 32 -2 0 -8 4 -15 9 -15 5 0 18 -3 28 -6 17 -5 17 -5 -1 10 -16 13 -17 18
-5 32 12 15 10 16 -21 9 -19 -4 -39 -11 -45 -15 -5 -4 -19 -4 -29 -1 -18 7
-18 8 -2 14 10 4 22 5 26 2 5 -3 11 -1 15 5 3 5 17 10 30 10 13 0 27 5 30 10
11 19 22 1 19 -30 -4 -30 8 -40 22 -19 3 6 14 9 24 6 11 -3 21 1 24 9 3 8 15
14 26 14 22 0 28 25 8 33 -10 4 -10 6 0 6 7 1 12 15 12 36 0 35 0 35 -45 35
-25 0 -45 5 -45 10 0 6 19 10 43 11 30 0 36 3 23 8 -14 5 -16 10 -8 15 7 4 17
4 22 1 6 -4 10 8 10 30 0 20 -4 34 -9 31 -4 -3 -16 3 -25 13 -16 18 -16 19 0
17 22 -1 31 33 12 46 -10 8 -9 9 5 4 30 -10 21 33 -10 46 l-28 12 28 4 c21 2
27 8 23 19 -3 8 -6 19 -6 24 0 5 -27 8 -60 7 -33 -2 -60 -6 -60 -10 0 -5 -9
-8 -20 -8 -11 0 -20 -3 -20 -7 0 -5 -11 -8 -25 -8 -14 0 -25 2 -25 5 0 7 83
32 120 36 14 2 41 7 60 12 l35 8 3 79 c2 56 -1 81 -10 86 -10 7 -10 9 0 9 7 0
12 15 12 39 0 54 -8 71 -35 71 -13 0 -27 5 -30 10 -5 9 16 14 53 13 19 -1 14
25 -5 30 -17 4 -17 5 -1 6 16 1 17 19 18 200 0 197 0 199 -23 205 -18 5 -19 8
-7 15 8 5 18 7 22 5 4 -3 8 45 8 105 0 66 -4 111 -10 111 -5 0 -7 12 -4 28 2
15 0 34 -5 42 -9 13 -12 12 -24 -4 -12 -17 -12 -22 -1 -34 25 -25 16 -34 -28
-29 -24 2 -53 8 -65 12 -18 6 -23 3 -23 -9 0 -23 -17 -20 -31 5 -11 20 -16 21
-96 16 -47 -3 -90 -10 -96 -16 -7 -5 -34 -10 -62 -12 -27 -2 -66 -9 -85 -17
-36 -15 -97 -22 -187 -22 -29 0 -53 -4 -53 -9 0 -8 -48 -16 -165 -27 -33 -4
-85 -14 -115 -24 -30 -10 -84 -21 -120 -25 -36 -4 -81 -11 -100 -15 -19 -5
-51 -11 -70 -14 -19 -3 -62 -10 -95 -16 -76 -14 -112 -18 -205 -25 -41 -3 -94
-8 -117 -11 -28 -4 -43 -2 -43 5 0 6 -3 10 -7 9 -15 -3 -98 24 -113 37 -12 11
-31 12 -92 4 -59 -7 -86 -6 -117 5 -24 8 -41 10 -43 4 -2 -6 -20 -5 -46 3 -86
25 -55 36 223 79 28 5 76 6 108 3 48 -5 57 -3 57 11 0 11 10 16 35 18 60 3 88
7 155 22 36 8 130 24 210 35 262 37 396 58 430 67 14 4 66 8 117 10 60 2 99 8
115 18 15 10 63 17 147 21 85 4 128 10 135 19 18 22 146 42 157 25 4 -8 14 -6
32 5 16 11 34 15 51 10 26 -6 37 8 16 21 -6 4 -7 11 -4 17 5 8 -5 9 -32 4
-108 -19 -131 -19 -163 0 -23 13 -31 26 -31 46 0 20 -5 28 -17 28 -9 0 -25 7
-35 17 -17 15 -19 15 -38 -2 -19 -18 -20 -17 -20 3 0 12 5 22 10 22 6 0 10 5
10 10 0 6 -7 10 -15 10 -8 0 -15 9 -15 20 0 15 13 27 43 40 23 11 44 15 45 10
2 -6 17 -10 34 -10 23 0 29 4 26 18 -3 12 -12 16 -30 14 -22 -2 -25 1 -20 23
2 14 11 25 18 25 8 0 14 5 14 12 0 9 3 9 12 0 24 -24 68 -3 68 34 0 26 -58 10
-95 -26 -32 -31 -69 -44 -46 -16 10 11 8 16 -6 24 -13 8 -20 6 -30 -6 -8 -11
-12 -12 -13 -4 0 25 40 53 73 51 42 -3 117 11 117 22 0 5 9 9 20 9 11 0 20 5
20 10 0 18 35 11 48 -10 7 -12 8 -20 2 -20 -5 0 -10 5 -10 11 0 5 -4 7 -10 4
-5 -3 -10 -15 -10 -27 0 -14 -5 -18 -16 -14 -9 3 -20 3 -25 0 -16 -10 10 -32
30 -27 25 6 68 -16 52 -27 -7 -4 -23 -5 -37 -2 -19 3 -24 0 -24 -16 0 -39 67
-38 103 1 10 12 17 15 17 7 0 -8 6 -9 18 -4 9 4 36 6 60 5 25 -1 51 4 64 14
13 8 33 15 45 15 23 0 23 1 23 146 l0 146 -32 -6 c-18 -3 -73 -10 -123 -15
-101 -11 -211 -26 -300 -42 -57 -10 -65 -9 -160 26 -55 21 -118 42 -140 47
-184 48 -248 66 -325 94 -36 13 -75 24 -86 24 -21 0 -44 17 -44 33 0 12 167 2
220 -12 41 -11 156 -1 153 14 -3 23 22 33 98 37 45 3 84 10 87 16 4 5 25 11
47 11 236 4 344 12 515 40 30 5 63 10 73 10 16 1 17 103 17 2006 l0 2005
-1013 0 c-558 0 -1017 -3 -1020 -7z m70 -585 c-3 -7 -5 -2 -5 12 0 14 2 19 5
13 2 -7 2 -19 0 -25z m-1350 -590 c-3 -8 -6 -5 -6 6 -1 11 2 17 5 13 3 -3 4
-12 1 -19z m1132 -217 c11 -7 10 -11 -7 -20 -15 -8 -23 -7 -31 3 -9 11 -9 15
1 19 19 8 22 8 37 -2z m205 -44 c-9 -24 -23 -11 -17 14 3 12 9 17 15 11 5 -5
6 -16 2 -25z m-4834 -992 c35 -24 134 -55 177 -55 13 0 23 -4 23 -10 0 -5 12
-10 26 -10 14 0 23 -4 19 -10 -3 -5 3 -10 14 -10 33 0 26 -30 -23 -102 -10
-15 -15 -32 -11 -39 4 -6 1 -15 -6 -20 -11 -7 -11 -9 -1 -9 7 0 20 -7 28 -15
13 -12 12 -16 -4 -32 -10 -10 -32 -25 -49 -34 -29 -16 -30 -18 -23 -66 5 -27
9 -85 11 -130 4 -99 -8 -118 -73 -120 -43 -2 -118 -30 -118 -44 0 -4 16 -3 36
2 19 6 48 7 64 4 30 -7 46 -30 28 -41 -6 -4 -8 -3 -5 2 3 6 -22 10 -61 11 -37
0 -56 -1 -42 -4 20 -3 59 -19 99 -40 1 -1 -4 -12 -13 -25 -9 -12 -16 -35 -16
-50 0 -19 -5 -28 -17 -29 -10 -1 -32 -3 -50 -5 -26 -2 -33 2 -43 25 -6 15 -27
36 -47 46 -19 11 -47 34 -61 52 -13 19 -27 31 -30 29 -8 -8 96 -133 151 -181
38 -33 47 -45 33 -45 -11 0 -17 -3 -14 -6 4 -3 -2 -34 -12 -70 l-19 -64 22 0
c15 0 18 -3 10 -11 -12 -12 -56 -2 -48 11 3 5 0 12 -6 16 -8 4 -9 3 -5 -4 4
-7 1 -12 -9 -12 -9 0 -45 27 -80 60 -88 85 -119 156 -119 270 0 47 4 105 10
130 l10 45 11 -32 c7 -18 14 -33 17 -33 3 0 1 12 -4 26 -7 19 -7 31 1 40 7 9
7 14 1 14 -5 0 -12 12 -15 28 -3 15 -11 51 -18 80 -10 44 -9 59 4 95 9 23 19
60 22 82 12 75 15 85 33 85 15 0 15 2 2 10 -12 8 -9 10 13 10 15 0 27 5 27 11
0 6 -7 9 -15 5 -8 -3 -15 -1 -15 4 0 6 4 10 9 10 5 0 11 7 14 14 4 10 1 13 -8
10 -17 -7 36 107 63 134 25 25 62 25 102 -3z m406 -108 c2 -7 0 -24 -6 -38
l-10 -24 2 25 c1 14 -1 31 -5 38 -5 7 -3 12 3 12 6 0 13 -6 16 -13z m4784 -7
c0 -4 30 -5 67 -3 l67 3 -22 -23 c-12 -13 -22 -35 -22 -50 0 -25 -3 -27 -40
-27 -22 0 -40 4 -40 9 0 6 -11 6 -28 0 -16 -5 -46 -8 -68 -5 -21 2 -45 5 -51
5 -9 1 -13 18 -13 52 l0 51 60 -4 c33 -1 60 0 60 4 0 4 7 5 15 2 8 -4 15 -9
15 -14z m-3194 -27 c-5 -16 3 -18 67 -20 39 -1 86 -6 102 -12 17 -5 57 -15 90
-22 33 -7 67 -16 75 -20 23 -11 22 -50 0 -94 -21 -40 -25 -85 -11 -120 14 -34
-6 -70 -46 -86 -21 -8 -51 -21 -67 -30 l-31 -16 0 -116 c0 -97 -3 -120 -18
-137 -19 -22 -15 -26 33 -33 l25 -4 -25 -11 -25 -11 28 0 c31 -1 39 -31 7 -31
-11 0 -20 -5 -20 -11 0 -5 5 -7 10 -4 6 3 10 -1 10 -9 0 -9 -6 -16 -14 -16
-20 0 -36 -24 -26 -39 4 -8 25 -17 46 -20 20 -3 39 -12 42 -20 3 -10 -2 -12
-22 -7 -15 4 -26 2 -26 -4 0 -12 -58 -2 -85 15 -11 7 -28 37 -39 66 -10 30
-21 56 -25 59 -16 12 -70 89 -89 125 -31 62 -40 109 -46 244 -3 69 -10 127
-14 130 -18 12 -23 51 -9 71 7 11 17 17 22 12 5 -4 5 -2 2 5 -4 6 -3 23 2 36
6 14 6 27 1 29 -12 4 19 90 39 105 24 18 43 16 37 -4z m-2331 -103 c10 -12 25
-18 32 -16 8 3 16 0 18 -7 8 -26 12 -176 4 -171 -11 7 -11 4 0 -32 20 -64 22
-84 6 -84 -8 0 -17 11 -21 25 -3 14 -23 46 -44 71 -36 44 -70 134 -70 187 0
47 43 62 75 27z m2992 -355 c-2 -22 -12 -56 -21 -75 l-16 -35 7 45 c4 25 7 65
6 88 -2 39 0 42 13 31 12 -10 15 -25 11 -54z m2601 38 c-5 -25 -28 -28 -28 -4
0 12 6 21 16 21 9 0 14 -7 12 -17z m-1853 -153 l0 -115 -40 -3 c-68 -4 -68 -4
-66 141 l1 98 53 -3 52 -3 0 -115z m-1025 70 c25 0 29 -4 35 -40 5 -30 3 -44
-9 -56 -9 -8 -13 -21 -9 -27 4 -7 0 -8 -11 -4 -10 4 -22 7 -27 7 -14 0 -39 64
-39 101 0 24 3 30 16 25 9 -3 28 -6 44 -6z m-319 -360 c36 -83 59 -105 124
-115 50 -7 53 -7 90 1 29 7 30 6 12 -13 -9 -11 -15 -27 -12 -35 8 -21 -20 -41
-49 -36 -17 3 -23 0 -22 -11 1 -22 -40 -26 -60 -7 -14 15 -14 16 5 16 19 0 19
1 -3 25 -27 29 -48 33 -39 8 3 -10 -7 -1 -22 21 -44 62 -75 152 -74 215 l0 56
20 -50 c11 -27 24 -61 30 -75z m174 80 c3 -5 -1 -10 -9 -10 -9 0 -16 5 -16 10
0 6 4 10 9 10 6 0 13 -4 16 -10z m-2091 -117 c13 -32 -86 -110 -124 -98 -26 8
-17 22 26 40 19 8 34 20 34 28 0 13 36 45 51 46 4 1 10 -6 13 -16z m2249 -190
c-7 -2 -13 -11 -13 -18 0 -7 -19 -30 -42 -49 -35 -30 -43 -34 -50 -21 -11 19
8 55 28 55 8 0 12 5 8 11 -5 8 -1 8 14 0 15 -8 23 -8 28 1 5 7 2 9 -7 4 -8 -4
-5 0 5 8 11 9 25 16 30 15 6 0 5 -3 -1 -6z m1833 -13 c8 0 14 -10 15 -22 1
-22 1 -22 8 2 7 24 8 24 12 -7 5 -27 2 -34 -21 -43 -21 -9 -35 -7 -74 10 -26
11 -53 20 -61 20 -17 0 -39 26 -22 28 6 0 32 5 57 10 25 5 51 8 58 6 8 -2 20
-4 28 -4z m-2033 -14 c-4 -5 1 -7 10 -3 11 4 17 1 17 -8 0 -8 5 -15 10 -15 6
0 10 -4 10 -10 0 -7 -60 27 -77 43 -1 2 6 3 17 3 10 0 16 -5 13 -10z m-1326
-307 c1 -67 7 -126 11 -133 5 -6 8 -21 7 -34 -1 -17 5 -24 29 -31 22 -7 -14
-9 -121 -10 -84 -1 -153 0 -153 2 0 2 -11 61 -25 132 -35 182 -37 171 38 183
34 5 96 10 137 11 l75 1 2 -121z m348 42 c14 -16 56 -48 95 -71 38 -23 70 -44
70 -47 0 -2 -4 -1 -10 2 -6 3 -10 -5 -10 -19 0 -16 -14 -39 -37 -62 -33 -34
-35 -38 -18 -44 28 -10 -31 -20 -116 -20 -62 0 -69 2 -69 19 0 45 55 271 66
271 3 0 16 -13 29 -29z m4418 -88 c-7 -2 -19 -2 -25 0 -7 3 -2 5 12 5 14 0 19
-2 13 -5z m-2467 -12 c-4 -5 0 -12 6 -14 7 -3 1 -6 -14 -6 -14 -1 -34 2 -44 6
-16 6 -16 7 2 14 27 11 56 11 50 0z m73 -37 c2 -2 -16 -4 -40 -4 -32 0 -40 -3
-29 -10 8 -5 27 -10 43 -10 16 0 27 -5 27 -13 0 -8 12 -19 26 -26 17 -7 24
-17 20 -26 -3 -8 -1 -15 5 -15 6 0 8 -9 4 -19 -3 -11 -1 -22 5 -26 6 -4 27
-41 46 -83 19 -42 40 -79 45 -83 6 -3 1 -9 -10 -12 -12 -3 -21 -1 -21 3 0 4
-35 8 -77 8 -68 -1 -79 2 -91 21 -8 11 -21 21 -28 21 -8 0 -14 2 -14 4 0 2 -3
13 -6 23 -5 17 -5 17 6 1 6 -10 15 -18 21 -18 5 0 2 11 -8 24 -10 13 -21 22
-24 20 -5 -3 -41 59 -44 76 0 3 -8 16 -17 30 -9 14 -25 42 -35 63 -17 37 -17
39 0 52 13 9 42 12 105 8 48 -3 89 -7 91 -9z m-5139 -154 c12 -7 7 -10 -18
-10 -77 0 -157 -79 -203 -199 -30 -79 -31 -85 -14 -97 12 -9 15 -19 9 -31 -14
-33 -12 -58 7 -79 26 -28 26 -147 0 -142 -11 3 -15 13 -14 33 2 28 2 28 -7 8
-5 -13 -14 -23 -19 -23 -7 0 -6 9 1 25 17 38 -5 101 -42 120 -39 20 -143 20
-160 0 -7 -8 -17 -15 -23 -15 -22 0 31 43 115 93 48 28 88 57 88 63 0 6 9 23
20 37 11 14 20 38 20 54 0 32 -24 73 -43 73 -9 0 -23 59 -14 60 1 0 26 8 54
18 60 20 220 28 243 12z m-820 -20 c0 -16 -7 -20 -34 -20 -19 0 -45 -4 -59 -9
-27 -10 -53 1 -43 18 4 6 17 11 29 11 12 0 29 5 37 10 8 5 27 10 43 10 20 0
27 -5 27 -20z m-640 -58 c0 -4 -19 -8 -42 -9 -32 -1 -38 1 -23 7 26 11 65 12
65 2z m690 -7 c0 -2 -13 -11 -29 -20 -34 -17 -130 -34 -243 -42 -66 -4 -78 -3
-78 10 0 9 12 18 28 21 49 9 176 20 204 18 14 -2 29 2 33 7 6 11 85 16 85 6z
m430 -34 c-11 -21 -29 -36 -36 -29 -4 5 33 48 42 48 2 0 0 -9 -6 -19z m5439
-65 c-3 -3 -11 5 -18 17 -13 21 -12 21 5 5 10 -10 16 -20 13 -22z m-6716 -13
c-7 -2 -21 -2 -30 0 -10 3 -4 5 12 5 17 0 24 -2 18 -5z m6837 -17 c0 -2 -17
-22 -38 -45 -23 -25 -46 -41 -60 -41 -13 0 -21 -4 -18 -9 7 -11 -67 -23 -88
-15 -23 9 -20 26 4 19 22 -7 26 5 8 23 -9 9 -5 12 18 12 31 0 70 30 57 44 -4
4 0 4 9 1 9 -4 25 -2 35 4 17 10 73 15 73 7z m-6600 -15 c0 -12 -28 -22 -34
-12 -3 5 -3 11 1 15 9 9 33 7 33 -3z m-680 -21 c0 -5 -4 -10 -10 -10 -5 0 -10
5 -10 10 0 6 5 10 10 10 6 0 10 -4 10 -10z m503 -7 c-13 -2 -33 -2 -45 0 -13
2 -3 4 22 4 25 0 35 -2 23 -4z m5457 0 c0 -5 -11 -13 -25 -20 -19 -9 -25 -8
-25 1 0 7 3 16 7 19 9 9 43 9 43 0z m4575 -3 c3 -5 1 -10 -4 -10 -6 0 -11 5
-11 10 0 6 2 10 4 10 3 0 8 -4 11 -10z m-10475 -10 c0 -14 -45 -23 -72 -14
-22 7 -22 7 -3 15 29 11 75 11 75 -1z m6017 -6 c-3 -3 -12 -4 -19 -1 -8 3 -5
6 6 6 11 1 17 -2 13 -5z m-6482 -34 c-3 -5 -13 -10 -21 -10 -8 0 -14 5 -14 10
0 6 9 10 21 10 11 0 17 -4 14 -10z m3834 -6 l69 -15 5 -42 c3 -23 3 -45 -1
-49 -4 -4 -26 7 -49 25 -22 18 -55 40 -72 49 -17 9 -31 24 -31 33 0 18 -4 18
79 -1z m7196 6 c3 -5 -1 -10 -9 -10 -8 0 -18 5 -21 10 -3 6 1 10 9 10 8 0 18
-4 21 -10z m-85 -15 c-7 -9 -15 -13 -17 -11 -7 7 7 26 19 26 6 0 6 -6 -2 -15z
m-3930 -89 c0 -9 -50 -12 -62 -5 -8 6 1 9 25 9 20 0 37 -2 37 -4z m-5050 -74
c0 -10 7 -27 15 -38 8 -10 15 -28 15 -40 0 -11 8 -29 19 -40 18 -19 18 -21 1
-31 -19 -13 -30 -8 -53 27 -19 27 -24 140 -7 140 6 0 10 -8 10 -18z m5000 -16
c0 -2 -9 -6 -20 -9 -11 -3 -18 -1 -14 4 5 9 34 13 34 5z m-74 -32 c-4 -9 -9
-15 -11 -12 -3 3 -3 13 1 22 4 9 9 15 11 12 3 -3 3 -13 -1 -22z m-4696 -34
c-6 -11 -15 -20 -20 -20 -5 0 -7 -7 -4 -15 8 -19 0 -19 -20 1 -22 22 -20 31
12 42 40 15 44 14 32 -8z m4520 0 c0 -12 -42 -23 -67 -17 -15 3 -14 5 7 15 32
14 60 15 60 2z m147 -67 c-3 -10 -5 -4 -5 12 0 17 2 24 5 18 2 -7 2 -21 0 -30z
m3928 -321 c-1 -1 -22 1 -46 5 l-44 7 35 6 c29 4 65 -7 55 -18z m-219 -10 c-8
-23 -52 -46 -61 -31 -4 5 -23 17 -43 26 -28 12 -33 17 -19 20 10 3 31 -1 47
-7 31 -13 70 -6 70 12 0 6 3 9 6 5 3 -3 3 -14 0 -25z m254 19 c0 -6 -4 -13
-10 -16 -5 -3 -10 1 -10 9 0 9 5 16 10 16 6 0 10 -4 10 -9z m-180 -31 c0 -4
12 -5 26 -2 19 3 25 1 20 -7 -4 -6 -19 -11 -34 -11 -15 0 -43 -2 -62 -5 -31
-5 -32 -5 -15 6 11 7 23 18 28 25 8 13 37 9 37 -6z m455 0 c3 -5 1 -10 -4 -10
-6 0 -11 5 -11 10 0 6 2 10 4 10 3 0 8 -4 11 -10z m-2240 -54 c25 -20 45 -43
45 -50 0 -7 11 -25 24 -39 25 -27 34 -60 23 -87 -26 -69 -6 -190 50 -307 30
-62 40 -73 74 -87 22 -9 46 -16 53 -16 15 0 76 -58 76 -73 0 -5 14 -27 31 -48
25 -32 34 -37 49 -29 10 6 34 10 52 10 32 1 32 1 13 16 -17 12 -18 16 -5 24
14 9 50 -4 50 -18 0 -4 20 -15 45 -25 51 -21 65 -55 18 -42 -38 10 -126 6
-137 -5 -14 -14 0 -23 34 -23 16 0 27 -4 24 -9 -7 -11 -52 -10 -59 2 -3 6 -11
10 -16 10 -6 0 -7 -4 -4 -10 9 -15 -2 -12 -30 6 -15 10 -36 14 -53 11 -15 -3
-47 -1 -71 5 -36 9 -48 8 -72 -6 -16 -10 -29 -12 -29 -7 0 6 -7 11 -15 11 -17
0 -19 -27 -5 -66 18 -47 6 -58 -38 -35 -37 19 -132 112 -132 129 0 32 37 104
69 135 46 43 46 58 6 217 -37 146 -56 177 -193 315 -19 19 -50 39 -70 46 -21
6 -50 21 -65 32 -40 27 -22 41 61 47 129 10 149 7 197 -34z m1383 39 c-3 -3
-25 -9 -49 -13 -24 -4 -44 -12 -44 -17 0 -20 -16 -34 -30 -29 -8 4 -12 11 -8
17 4 6 -2 8 -14 5 -12 -3 -27 -2 -34 3 -10 6 -3 9 21 9 19 0 46 7 60 15 23 13
110 22 98 10z m127 -26 c13 -39 -53 -53 -109 -24 -15 8 -36 15 -45 15 -14 0
-14 2 -1 10 8 5 24 7 35 4 11 -2 34 0 50 5 48 15 63 12 70 -10z m542 -16 c-3
-3 -11 -2 -17 2 -8 5 -7 11 2 22 12 15 13 14 16 -1 2 -10 1 -20 -1 -23z m191
15 c-3 -7 -13 -15 -23 -16 -15 -4 -16 -2 -4 12 17 19 32 21 27 4z m-326 -18
c13 -6 34 -17 48 -25 22 -13 23 -15 6 -21 -10 -4 -21 -2 -26 5 -4 7 -13 11
-21 10 -17 -4 -59 18 -59 31 0 13 23 13 52 0z m-835 -14 c3 -3 15 -6 25 -6 10
0 18 -7 18 -15 0 -8 7 -15 15 -15 8 0 15 5 15 10 0 6 7 10 15 10 8 0 15 -9 15
-20 0 -16 -7 -20 -30 -20 -16 0 -30 5 -30 10 0 6 -14 10 -30 10 -17 0 -38 4
-48 9 -9 5 -25 12 -35 15 -30 10 -9 25 29 22 19 -2 37 -6 41 -10z m1066 7 c-7
-2 -21 -2 -30 0 -10 3 -4 5 12 5 17 0 24 -2 18 -5z m-1763 -14 c57 -13 80 -30
53 -40 -35 -14 -85 -9 -114 12 -53 38 -29 49 61 28z m440 -49 c0 -13 -7 -20
-18 -20 -24 0 -32 8 -25 26 8 22 43 17 43 -6z m50 16 c0 -11 -19 -15 -25 -6
-3 5 1 10 9 10 9 0 16 -2 16 -4z m1227 -12 c19 -5 20 -8 8 -20 -15 -15 -85
-20 -85 -6 0 5 10 14 23 20 27 13 27 13 54 6z m-1397 -14 c0 -5 -4 -10 -9 -10
-6 0 -13 5 -16 10 -3 6 1 10 9 10 9 0 16 -4 16 -10z m898 -5 c13 -13 -11 -18
-30 -6 -17 11 -22 11 -29 0 -4 -8 -11 -10 -14 -7 -15 15 9 30 38 24 17 -3 33
-8 35 -11z m49 -17 c-3 -7 -5 -2 -5 12 0 14 2 19 5 13 2 -7 2 -19 0 -25z
m-1352 12 c3 -5 -1 -10 -9 -10 -9 0 -16 5 -16 10 0 6 4 10 9 10 6 0 13 -4 16
-10z m1143 -5 c28 -8 30 -45 2 -45 -11 0 -20 6 -20 14 0 8 -9 18 -20 21 -25 8
-27 28 -2 21 9 -2 27 -7 40 -11z m290 7 c8 -6 2 -9 -18 -9 -16 0 -30 4 -30 9
0 10 31 10 48 0z m-1178 -22 c-14 -10 -21 -22 -16 -27 5 -4 11 -2 13 5 3 6 14
12 25 12 17 0 18 -3 8 -15 -7 -8 -20 -15 -29 -16 -9 -1 -5 -4 9 -9 18 -6 20
-8 7 -9 -10 -1 -27 4 -38 9 -15 8 -24 6 -41 -10 -26 -24 -38 -26 -38 -6 0 8 8
17 18 19 10 3 6 5 -10 6 -33 1 -35 11 -8 36 12 11 28 15 42 12 13 -4 30 -2 38
3 29 19 46 10 20 -10z m670 10 c0 -5 18 -10 40 -10 23 0 40 -5 40 -11 0 -8
-13 -10 -38 -7 -47 7 -77 -17 -48 -37 36 -27 -4 -24 -48 2 -46 28 -57 43 -32
43 7 0 27 7 42 15 34 17 44 19 44 5z m-325 -9 l30 -7 -39 -7 c-27 -4 -42 -2
-53 8 -13 13 -12 15 9 14 13 -1 37 -4 53 -8z m1031 -7 c18 -15 18 -15 -4 -9
-13 4 -37 1 -53 -5 -24 -10 -36 -10 -57 -1 -18 9 -28 9 -30 2 -2 -6 -14 -11
-27 -11 -19 0 -22 -4 -18 -21 3 -11 15 -25 27 -29 19 -8 19 -9 -6 -9 -23 -1
-28 3 -28 24 0 22 -4 25 -37 26 -37 1 -37 1 -10 9 16 5 34 13 41 19 6 5 41 12
76 14 36 2 74 4 86 5 11 1 29 -5 40 -14z m-1547 -8 c-12 -10 -60 -16 -54 -6 3
5 18 10 32 10 15 0 24 -2 22 -4z m1006 -12 c19 -14 19 -14 -5 -11 -13 2 -26 9
-28 15 -5 16 9 14 33 -4z m-465 -34 c0 -13 7 -20 20 -20 22 0 27 -15 9 -25 -6
-4 -19 2 -30 14 -20 22 -26 51 -9 51 6 0 10 -9 10 -20z m350 10 c0 -5 -7 -10
-15 -10 -8 0 -15 5 -15 10 0 6 7 10 15 10 8 0 15 -4 15 -10z m628 -29 c-15 -5
-19 4 -11 24 6 18 7 18 13 -1 4 -10 3 -21 -2 -23z m119 23 c-3 -3 -12 -4 -19
-1 -8 3 -5 6 6 6 11 1 17 -2 13 -5z m-1130 -19 c0 -10 -8 -15 -20 -13 -30 4
-34 28 -4 28 15 0 24 -6 24 -15z m644 -4 c-35 -9 -39 -31 -6 -31 23 0 25 -2
11 -15 -8 -8 -19 -15 -25 -15 -16 0 -51 32 -51 46 0 7 -6 15 -12 17 -7 3 14 5
47 5 38 0 51 -2 36 -7z m304 -11 c4 -6 -5 -10 -20 -10 -15 0 -24 4 -20 10 3 6
12 10 20 10 8 0 17 -4 20 -10z m285 0 c0 -5 -4 -10 -10 -10 -5 0 -10 5 -10 10
0 6 5 10 10 10 6 0 10 -4 10 -10z m90 -16 c9 -23 15 -26 40 -20 22 4 30 2 30
-8 0 -19 -21 -25 -42 -12 -12 7 -24 8 -35 1 -25 -14 -115 -3 -121 14 -4 11 2
12 24 7 16 -4 40 -8 54 -9 22 -2 25 2 22 26 -4 34 15 35 28 1z m-783 10 c-3
-3 -12 -4 -19 -1 -8 3 -5 6 6 6 11 1 17 -2 13 -5z m-800 -29 c6 -21 -14 -33
-69 -40 -38 -5 -58 -4 -58 3 0 6 8 13 18 15 13 4 11 5 -5 6 -13 0 -23 -4 -23
-11 0 -9 -3 -9 -11 -1 -7 7 -21 8 -41 2 -18 -5 -38 -5 -46 0 -12 7 -5 12 28
21 25 6 50 13 55 15 20 8 149 -1 152 -10z m173 5 c10 0 20 -6 23 -14 5 -12 0
-12 -26 -5 -18 5 -48 10 -67 10 l-35 1 30 8 c17 4 36 6 43 4 8 -2 22 -4 32 -4z
m1145 0 c-3 -5 -11 -10 -16 -10 -6 0 -7 5 -4 10 3 6 11 10 16 10 6 0 7 -4 4
-10z m-855 -40 c8 -5 12 -12 9 -15 -8 -8 -39 5 -39 16 0 11 11 11 30 -1z m200
-6 c0 -2 -7 -4 -15 -4 -8 0 -15 4 -15 10 0 5 7 7 15 4 8 -4 15 -8 15 -10z
m558 -12 c2 -8 -9 -12 -33 -12 -31 0 -35 -2 -26 -14 8 -10 9 -16 1 -21 -5 -3
-10 1 -10 9 0 19 -7 20 -25 4 -52 -47 -55 -47 -55 -8 0 19 7 33 20 40 14 7 20
7 20 0 0 -5 9 -10 20 -10 11 0 20 4 20 9 0 9 35 20 54 16 6 0 12 -7 14 -13z
m110 -1 c56 -16 49 -35 -14 -39 -30 -1 -44 1 -36 6 10 7 10 11 -3 22 -14 11
-19 7 -16 -12 0 -5 -9 -8 -21 -8 -13 0 -18 4 -12 8 6 4 13 15 17 24 7 19 16
19 85 -1z m-994 -6 c3 -10 -1 -15 -14 -15 -20 0 -33 13 -23 24 11 11 31 6 37
-9z m56 5 c0 -5 -9 -10 -20 -10 -11 0 -20 5 -20 10 0 6 9 10 20 10 11 0 20 -4
20 -10z m184 4 c9 -3 16 -13 16 -21 0 -10 -6 -13 -16 -9 -9 3 -18 6 -20 6 -2
0 -4 7 -4 15 0 17 2 18 24 9z m496 -4 c0 -5 -4 -10 -10 -10 -5 0 -10 5 -10 10
0 6 5 10 10 10 6 0 10 -4 10 -10z m580 -41 c0 -16 -5 -18 -25 -13 -14 3 -31 1
-38 -5 -9 -7 -29 -8 -58 -2 l-44 8 28 11 c16 7 38 12 50 13 12 0 31 4 42 8 27
11 45 3 45 -20z m-1460 6 c0 -8 -9 -15 -20 -15 -11 0 -20 7 -20 15 0 8 9 15
20 15 11 0 20 -7 20 -15z m319 1 c-13 -11 -49 -16 -49 -6 0 6 4 9 8 6 4 -2 14
-1 22 4 13 8 29 5 19 -4z m416 4 c3 -5 1 -10 -4 -10 -6 0 -11 5 -11 10 0 6 2
10 4 10 3 0 8 -4 11 -10z m-495 -10 c0 -5 -9 -10 -20 -10 -11 0 -20 5 -20 10
0 6 9 10 20 10 11 0 20 -4 20 -10z m530 0 c0 -5 -5 -10 -11 -10 -5 0 -7 5 -4
10 3 6 8 10 11 10 2 0 4 -4 4 -10z m260 -10 c0 -5 -5 -10 -11 -10 -5 0 -7 5
-4 10 3 6 8 10 11 10 2 0 4 -4 4 -10z m-1010 -14 c0 -2 -7 -6 -15 -10 -8 -3
-15 -1 -15 4 0 6 7 10 15 10 8 0 15 -2 15 -4z m103 -2 c8 -8 -10 -44 -22 -44
-5 0 -6 11 -3 25 4 25 13 31 25 19z m165 -1 c-10 -2 -26 -2 -35 0 -10 3 -2 5
17 5 19 0 27 -2 18 -5z m305 0 c-7 -2 -19 -2 -25 0 -7 3 -2 5 12 5 14 0 19 -2
13 -5z m687 -8 c0 -8 -4 -15 -9 -15 -13 0 -22 16 -14 24 11 11 23 6 23 -9z
m-102 -23 c6 -1 12 -10 12 -20 0 -10 4 -22 10 -28 16 -16 -30 -14 -82 4 -31
10 -48 22 -48 32 0 14 9 16 48 15 26 -1 53 -2 60 -3z m-865 -9 c-7 -2 -19 -2
-25 0 -7 3 -2 5 12 5 14 0 19 -2 13 -5z m102 -2 c8 -14 -13 -24 -33 -16 -14 5
-14 7 -2 15 19 12 27 12 35 1z m-819 -28 c-7 -7 -26 7 -26 19 0 6 6 6 15 -2 9
-7 13 -15 11 -17z m259 7 c3 -5 1 -10 -4 -10 -6 0 -11 5 -11 10 0 6 2 10 4 10
3 0 8 -4 11 -10z m404 1 c10 -6 10 -10 1 -16 -7 -4 -19 0 -28 9 -14 13 -14 16
-2 16 8 0 21 -4 29 -9z m-67 -14 c7 -7 30 -23 51 -36 20 -12 37 -25 37 -27 0
-11 -57 11 -72 29 -10 11 -25 17 -36 15 -11 -3 -27 -1 -38 5 -17 10 -17 11 1
18 29 11 42 10 57 -4z m128 3 c0 -5 -9 -10 -20 -10 -11 0 -20 5 -20 10 0 6 9
10 20 10 11 0 20 -4 20 -10z m935 1 c3 -5 1 -12 -5 -16 -5 -3 -10 1 -10 9 0
18 6 21 15 7z m-1566 -42 c-22 -13 -31 -11 -17 5 7 8 17 12 22 9 4 -3 2 -9 -5
-14z m298 0 c-14 -8 -22 -8 -30 0 -8 8 -3 11 19 11 25 -1 27 -2 11 -11z m910
-4 c-21 -11 -34 -12 -48 -5 -10 6 -19 12 -19 14 0 1 21 4 48 4 l47 2 -28 -15z
m-847 -16 c0 -5 -12 -9 -27 -9 -27 1 -27 1 -9 15 19 14 36 12 36 -6z m1330 2
c0 -5 -7 -11 -15 -15 -15 -5 -20 5 -8 17 9 10 23 9 23 -2z m-375 -20 c-3 -6
-11 -8 -17 -5 -6 4 -5 9 3 15 16 10 23 4 14 -10z m120 9 c4 -6 -7 -10 -27 -9
-27 0 -30 2 -13 9 27 12 33 12 40 0z m-1060 -20 c-3 -5 -10 -10 -16 -10 -5 0
-9 5 -9 10 0 6 7 10 16 10 8 0 12 -4 9 -10z m60 -33 c5 -4 -15 -7 -45 -5 -30
1 -61 -1 -67 -5 -7 -5 -18 -5 -25 -1 -17 11 29 25 57 18 18 -4 25 -1 30 15 6
20 7 20 23 4 9 -10 21 -22 27 -26z m628 36 c-7 -2 -19 -2 -25 0 -7 3 -2 5 12
5 14 0 19 -2 13 -5z m-956 -37 c14 -14 -12 -26 -43 -20 -23 4 -34 2 -34 -6 0
-15 -92 -9 -97 6 -7 21 154 40 174 20z m703 4 c13 -9 13 -10 0 -10 -8 0 -22 5
-30 10 -13 9 -13 10 0 10 8 0 22 -5 30 -10z m618 3 c-10 -2 -26 -2 -35 0 -10
3 -2 5 17 5 19 0 27 -2 18 -5z m310 -15 c54 -16 36 -27 -35 -21 -65 5 -67 4
-48 -12 l20 -17 -20 8 c-23 8 -46 8 -92 -1 -31 -6 -33 -4 -33 25 0 20 5 30 15
30 8 0 15 -6 15 -14 0 -21 51 -31 62 -12 5 9 16 16 23 16 8 0 15 4 15 9 0 9
20 7 78 -11z m-1488 8 c0 -3 -4 -8 -10 -11 -5 -3 -10 -1 -10 4 0 6 5 11 10 11
6 0 10 -2 10 -4z m1108 -33 c2 -8 -5 -13 -17 -13 -24 0 -27 -10 -8 -29 10 -11
9 -13 -6 -7 -10 3 -30 6 -43 6 -13 0 -24 4 -24 9 0 4 11 6 25 3 18 -3 25 0 25
12 0 12 -10 16 -37 17 -38 1 -38 1 -8 9 42 11 88 7 93 -7z m-485 -5 c-2 -5
-15 -8 -29 -8 -14 0 -23 3 -21 8 3 4 16 7 30 7 14 0 23 -3 20 -7z m347 -8 c0
-5 -2 -10 -4 -10 -3 0 -8 5 -11 10 -3 6 -1 10 4 10 6 0 11 -4 11 -10z m-684
-15 c9 -8 27 -15 40 -15 16 0 28 -8 33 -22 5 -13 7 -24 6 -26 -2 -2 -29 4 -61
13 -95 26 -92 24 -64 45 30 24 28 23 46 5z m-106 -15 c0 -5 -7 -10 -16 -10 -8
0 -12 5 -9 10 3 6 10 10 16 10 5 0 9 -4 9 -10z m640 -4 c0 -3 -4 -8 -10 -11
-5 -3 -10 -1 -10 4 0 6 5 11 10 11 6 0 10 -2 10 -4z m-720 -16 c0 -5 -9 -10
-20 -10 -11 0 -20 5 -20 10 0 6 9 10 20 10 11 0 20 -4 20 -10z m-225 -11 c-18
-5 -33 -5 -39 1 -7 7 4 10 30 9 39 -1 39 -1 9 -10z m104 7 c-12 -10 -59 -15
-59 -6 0 5 14 10 32 10 17 0 29 -2 27 -4z m41 -21 c0 -8 11 -17 25 -21 13 -3
29 -12 35 -20 9 -10 6 -14 -17 -19 -15 -4 -35 -9 -43 -11 -21 -7 -120 7 -120
17 0 5 10 9 23 10 21 1 21 1 -3 8 -23 7 -22 8 14 15 21 4 45 14 53 22 19 18
33 18 33 -1z m1416 8 c-10 -11 -37 -12 -30 -2 3 5 12 9 21 9 9 0 13 -3 9 -7z
m-1546 -23 c0 -13 -26 -19 -41 -9 -12 8 -12 10 0 18 15 10 41 4 41 -9z m293 7
c4 3 7 2 7 -4 0 -16 -26 -23 -39 -10 -8 8 -11 7 -11 -3 0 -7 -3 -10 -6 -7 -12
12 18 38 31 27 6 -5 15 -7 18 -3z m1197 -3 c0 -10 -33 -33 -48 -34 -7 0 -10 5
-7 10 3 6 0 10 -8 10 -16 0 -30 -37 -17 -45 5 -3 24 -3 44 1 28 4 36 2 36 -10
0 -18 -12 -20 -57 -7 -36 10 -60 -6 -49 -34 3 -8 1 -15 -4 -15 -6 0 -10 10
-10 22 0 20 -1 21 -16 7 -9 -9 -25 -14 -40 -11 -25 5 -31 16 -14 27 7 4 6 13
-1 27 -9 16 -8 23 2 29 18 11 26 11 51 -2 17 -9 24 -8 33 4 14 19 105 37 105
21z m-479 -19 c0 -5 -9 -11 -21 -13 -20 -3 -27 8 -13 22 10 9 34 3 34 -9z
m-521 -25 c0 -15 -7 -20 -25 -20 -18 0 -25 5 -25 20 0 15 7 20 25 20 18 0 25
-5 25 -20z m1140 -1 c0 -5 -22 -9 -50 -9 -27 0 -50 -4 -50 -10 0 -5 -7 -7 -15
-4 -28 11 4 33 53 36 52 3 62 1 62 -13z m-1067 -6 c-7 -2 -19 -2 -25 0 -7 3
-2 5 12 5 14 0 19 -2 13 -5z m457 -3 c0 -5 -4 -10 -10 -10 -5 0 -10 5 -10 10
0 6 5 10 10 10 6 0 10 -4 10 -10z m-591 -40 c9 0 29 -13 44 -28 l27 -29 -31 5
c-24 3 -30 9 -26 23 3 13 -1 19 -16 21 -12 2 -22 10 -23 18 0 9 1 10 3 3 3 -7
12 -13 22 -13z m199 19 c23 1 32 -3 32 -13 0 -12 -11 -15 -45 -14 -32 0 -45 5
-45 15 0 8 -4 11 -10 8 -5 -3 -10 -1 -10 5 0 7 8 9 23 4 12 -4 37 -6 55 -5z
m172 -3 c0 -9 8 -12 25 -8 15 2 25 0 25 -7 0 -6 -15 -11 -34 -11 -25 0 -35 5
-39 20 -3 13 0 20 9 20 8 0 14 -6 14 -14z m770 10 c0 -11 -19 -15 -25 -6 -3 5
1 10 9 10 9 0 16 -2 16 -4z m-1200 -16 c0 -5 -5 -10 -11 -10 -5 0 -7 5 -4 10
3 6 8 10 11 10 2 0 4 -4 4 -10z m710 0 c0 -5 -7 -10 -15 -10 -8 0 -15 5 -15
10 0 6 7 10 15 10 8 0 15 -4 15 -10z m-39 -17 c13 -15 11 -16 -17 -10 -18 3
-34 3 -38 0 -10 -10 -86 -15 -86 -5 0 10 62 29 101 31 15 0 33 -7 40 -16z
m-890 -11 c-7 -2 -18 1 -23 6 -8 8 -4 9 13 5 13 -4 18 -8 10 -11z m139 2 c0
-2 -9 -4 -20 -4 -11 0 -20 4 -20 9 0 5 9 7 20 4 11 -3 20 -7 20 -9z m817 -10
c3 -8 12 -13 19 -10 8 3 14 -1 14 -9 0 -8 -6 -15 -12 -15 -18 1 -48 25 -48 39
0 17 20 13 27 -5z m-587 -4 c0 -5 -4 -10 -10 -10 -5 0 -10 5 -10 10 0 6 5 10
10 10 6 0 10 -4 10 -10z m-286 -17 c5 -11 10 -13 14 -7 4 6 18 14 32 17 l25 6
-24 -20 c-13 -11 -31 -17 -38 -14 -8 3 -19 5 -24 5 -5 0 -9 7 -9 15 0 20 16
19 24 -2z m-257 -18 c9 -20 8 -25 -3 -25 -8 0 -14 -7 -14 -15 0 -8 -7 -15 -16
-15 -10 0 -14 6 -11 15 7 18 3 20 -46 29 -27 5 -37 4 -32 -3 3 -6 1 -11 -4
-11 -6 0 -11 5 -11 10 0 17 -18 11 -24 -7 -3 -11 -4 -9 -3 6 2 21 8 25 47 28
25 3 47 6 49 9 2 2 16 4 30 4 18 0 30 -8 38 -25z m30 19 c-3 -3 -12 -4 -19 -1
-8 3 -5 6 6 6 11 1 17 -2 13 -5z m833 -3 c0 -5 -9 -11 -19 -14 -14 -3 -18 -1
-14 9 6 15 33 19 33 5z m230 -11 c27 -20 26 -27 -5 -30 -38 -4 -55 0 -55 14 0
7 -15 18 -32 24 -32 10 -32 10 17 11 35 0 58 -5 75 -19z m-980 2 c0 -4 -5 -13
-12 -20 -9 -9 -9 -12 1 -12 7 0 9 -4 6 -10 -3 -5 -1 -18 5 -29 12 -23 5 -26
-84 -37 -40 -4 -57 -3 -52 4 3 6 1 12 -6 15 -7 2 0 3 16 1 39 -5 107 7 100 18
-3 5 -22 6 -42 3 l-37 -5 38 18 c21 9 35 20 31 24 -4 4 -1 14 6 23 13 16 30
20 30 7z m665 -2 c3 -5 -1 -10 -10 -10 -9 0 -13 5 -10 10 3 6 8 10 10 10 2 0
7 -4 10 -10z m130 -1 c11 -17 -1 -21 -15 -4 -8 9 -8 15 -2 15 6 0 14 -5 17
-11z m325 7 c0 -3 -4 -8 -10 -11 -5 -3 -10 -1 -10 4 0 6 5 11 10 11 6 0 10 -2
10 -4z m-560 -38 c0 -4 5 -8 10 -8 6 0 22 -7 36 -16 17 -12 21 -20 14 -29 -5
-6 -7 -15 -3 -18 11 -11 23 -8 23 7 0 8 8 12 23 9 15 -3 22 -12 22 -26 0 -18
-7 -23 -32 -24 -23 -2 -33 1 -33 11 0 19 -52 15 -58 -4 -3 -9 1 -11 11 -7 9 3
19 2 22 -4 4 -5 -6 -10 -22 -10 -15 0 -52 -1 -80 -3 -39 -2 -53 1 -53 11 0 7
-7 13 -15 13 -8 0 -15 5 -15 11 0 7 -10 9 -25 5 -22 -6 -25 -3 -25 19 0 17 -6
25 -17 25 -14 0 -15 2 -5 9 7 4 24 6 38 3 18 -3 24 0 25 14 0 18 1 18 8 -1 8
-19 8 -19 19 0 10 17 11 17 12 3 0 -9 6 -19 13 -21 6 -3 -3 -6 -22 -6 -33 -1
-33 -2 -17 -20 11 -12 25 -17 38 -13 14 3 19 1 14 -6 -4 -7 -2 -12 5 -12 7 0
21 -7 31 -16 21 -20 39 -9 62 36 l14 28 -33 -5 c-31 -5 -32 -4 -27 22 4 26 3
27 -21 23 -15 -3 -24 -2 -21 3 6 10 84 7 84 -3z m110 8 c0 -3 -4 -8 -10 -11
-5 -3 -10 -1 -10 4 0 6 5 11 10 11 6 0 10 -2 10 -4z m73 -3 c-7 -2 -13 -12
-13 -20 0 -9 -3 -14 -6 -10 -10 10 4 37 18 36 10 0 10 -2 1 -6z m792 -3 c25
-11 -1 -11 -35 0 -20 6 -21 8 -5 8 11 0 29 -3 40 -8z m-647 -16 c12 -2 22 -9
22 -15 0 -6 -7 -8 -16 -5 -8 3 -13 2 -10 -3 6 -10 -16 -21 -41 -21 -8 0 -21 7
-29 15 -17 17 -44 20 -44 5 0 -5 -6 -10 -14 -10 -23 0 -7 38 18 42 23 3 79 0
114 -8z m419 -4 c3 -11 10 -20 15 -20 5 0 6 5 2 11 -5 9 1 10 19 5 15 -3 45
-2 67 3 33 7 40 6 36 -4 -3 -8 8 -15 35 -19 38 -6 49 -18 29 -31 -8 -5 -8 -11
-1 -19 8 -10 4 -16 -15 -25 -21 -9 -28 -8 -41 4 -19 20 -38 14 -38 -11 0 -16
-6 -18 -36 -16 -21 2 -40 -1 -43 -6 -3 -5 -17 -7 -31 -4 -14 2 -25 0 -25 -4 0
-13 -91 -8 -136 7 -46 16 -64 31 -64 53 0 11 -9 16 -30 16 -16 0 -30 5 -30 10
0 10 65 15 124 11 18 -2 26 1 21 8 -7 13 38 33 58 25 7 -2 21 2 32 10 28 21
46 20 52 -4z m-990 -30 c3 -10 2 -11 -4 -4 -4 6 -15 14 -23 17 -11 5 -9 6 4 4
11 -1 21 -9 23 -17z m628 10 c3 -5 1 -10 -4 -10 -6 0 -11 5 -11 10 0 6 2 10 4
10 3 0 8 -4 11 -10z m-708 -23 c-2 -7 -10 -12 -18 -12 -16 0 -59 -40 -59 -54
0 -18 35 -6 40 14 3 11 15 21 25 22 11 1 32 5 47 9 19 4 37 0 55 -12 16 -11
42 -25 58 -33 23 -11 26 -15 13 -18 -10 -3 -18 -9 -18 -14 0 -22 -45 -4 -48
19 -2 12 -8 22 -13 22 -6 0 -8 -4 -5 -8 3 -5 -3 -21 -13 -37 -15 -25 -24 -30
-59 -30 -27 0 -42 4 -42 13 0 6 -5 12 -11 12 -6 0 -8 -9 -4 -20 10 -30 -1 -26
-50 18 -17 15 -33 16 -17 0 16 -16 15 -36 -2 -54 -21 -20 -29 -17 -16 5 13 25
13 31 0 31 -5 0 -10 -6 -10 -14 0 -8 -4 -17 -10 -21 -15 -9 -60 6 -60 21 0 10
-8 12 -30 7 -24 -4 -36 0 -57 21 l-27 27 28 -11 c37 -14 37 -14 26 15 -8 21
-7 25 10 25 13 0 20 -7 20 -19 0 -21 51 -34 85 -21 17 6 14 9 -17 15 -21 4
-38 11 -38 15 0 5 -10 12 -22 16 -20 6 -19 8 16 22 34 13 39 13 54 -2 15 -15
14 -16 -8 -16 -23 -1 -23 -2 -7 -11 14 -9 22 -7 33 8 11 15 15 16 23 4 18 -28
49 3 42 42 -1 5 2 6 6 4 5 -2 16 -1 26 2 32 12 59 11 54 -2z m-504 -11 c16
-13 16 -14 -8 -18 -19 -4 -25 -1 -25 13 0 22 8 23 33 5z m389 -8 c-17 -8 -26
-8 -34 0 -9 9 -4 12 23 11 32 0 33 -1 11 -11z m888 -3 c11 -13 8 -21 -16 -47
l-29 -31 28 7 c20 5 27 3 27 -8 0 -8 -8 -17 -17 -21 -17 -7 -16 -8 2 -15 17
-7 14 -9 -12 -9 -18 -1 -33 4 -33 10 0 6 -7 8 -16 5 -15 -6 -74 18 -74 30 0 4
10 4 23 1 12 -4 29 -1 37 4 12 9 10 10 -7 6 -13 -3 -26 -1 -29 4 -3 6 -15 4
-29 -5 -22 -14 -35 -12 -35 6 0 5 12 13 28 19 15 7 22 13 14 16 -6 3 -10 8 -8
12 7 10 66 1 66 -10 0 -5 5 -9 10 -9 6 0 10 7 10 15 0 13 25 34 41 35 4 0 12
-7 19 -15z m-1115 -45 c-28 -12 -37 -12 -30 0 3 6 16 10 28 9 21 0 21 -1 2 -9z
m1195 -40 c16 0 11 -27 -6 -34 -27 -10 -38 -7 -25 7 6 8 9 16 7 18 -2 2 -6 18
-10 34 l-6 30 15 -27 c9 -16 20 -28 25 -28z m-292 25 c3 -3 -4 -5 -16 -5 -42
0 -102 -24 -99 -40 1 -9 -7 -16 -20 -18 -22 -3 -33 -22 -14 -22 34 0 71 14 69
27 -2 9 12 20 37 29 44 15 70 11 62 -9 -3 -9 3 -13 17 -13 14 1 21 -5 20 -16
-2 -17 13 -23 44 -19 6 1 12 -3 12 -9 0 -6 5 -8 10 -5 6 3 10 2 10 -4 0 -20
-22 -23 -41 -5 -10 9 -19 12 -19 7 0 -12 -39 -25 -83 -29 -16 -1 -34 -7 -39
-12 -15 -15 -70 -2 -86 20 -7 10 -18 15 -24 12 -7 -4 -8 -2 -4 4 9 14 -13 15
-34 2 -13 -8 -10 -14 15 -34 17 -13 27 -28 22 -32 -4 -4 -44 -7 -90 -7 -60 0
-85 -4 -93 -14 -8 -11 -21 -13 -57 -8 -26 4 -48 11 -48 16 -1 5 -2 14 -3 21
-1 15 -26 23 -26 9 0 -15 -31 -13 -53 3 -12 9 -14 16 -7 21 6 3 10 12 9 18 -3
27 3 35 30 39 21 3 28 1 24 -9 -3 -7 0 -13 6 -13 6 0 11 5 11 10 0 6 9 10 19
10 11 0 23 -4 26 -10 3 -5 1 -10 -4 -10 -6 0 -11 -7 -11 -15 0 -23 17 -18 23
6 5 18 11 21 36 16 29 -6 31 -4 31 22 0 27 4 30 43 36 23 4 50 12 61 17 13 7
16 7 12 -1 -9 -15 -4 -14 30 4 33 17 78 20 69 5 -9 -15 4 -12 20 4 13 13 91
14 103 1z m-1043 -22 c-2 -10 -4 -20 -5 -23 -1 -3 -2 -8 -1 -12 0 -5 -3 -8 -8
-8 -4 0 -8 13 -7 30 1 16 6 30 13 30 6 0 10 -8 8 -17z m83 -26 c2 -11 -1 -15
-11 -11 -8 3 -18 1 -22 -5 -8 -14 -45 -14 -45 -1 0 6 9 10 20 10 12 0 20 7 20
16 0 21 34 14 38 -9z m1492 -2 c10 -12 10 -15 -4 -15 -9 0 -16 7 -16 15 0 8 2
15 4 15 2 0 9 -7 16 -15z m110 11 c0 -8 -51 -13 -56 -5 -3 5 9 9 25 9 17 0 31
-2 31 -4z m21 -26 c-12 -11 -27 -17 -33 -14 -11 7 21 33 42 33 10 0 8 -6 -9
-19z m51 -7 c-6 -3 -10 -9 -6 -14 3 -5 0 -9 -5 -9 -6 0 -11 4 -11 8 0 12 23
32 29 25 3 -3 0 -8 -7 -10z m-239 0 c-7 -2 -19 -2 -25 0 -7 3 -2 5 12 5 14 0
19 -2 13 -5z m-6470 -10 c-7 -2 -21 -2 -30 0 -10 3 -4 5 12 5 17 0 24 -2 18
-5z m81 -5 c-7 -11 -34 -10 -34 1 0 6 9 9 19 8 11 0 17 -5 15 -9z m5055 -7 c9
-16 6 -19 -27 -25 -56 -9 -112 -7 -112 4 0 6 -18 10 -40 10 -22 0 -40 5 -40
10 0 12 16 13 58 1 21 -7 32 -6 32 1 0 5 6 8 13 5 6 -2 21 -1 32 4 36 14 74
10 84 -10z m1371 -1 c13 -8 13 -10 -2 -10 -9 0 -20 5 -23 10 -8 13 5 13 25 0z
m98 -29 c2 -23 0 -31 -8 -26 -6 4 -9 17 -6 30 3 13 1 26 -4 28 -6 3 -5 4 2 3
7 -1 14 -17 16 -35z m51 26 c-9 -7 -19 -21 -22 -32 -4 -16 -5 -15 -6 6 -1 30
6 39 28 39 14 -1 14 -2 0 -13z m-5734 -18 c10 -31 0 -33 -19 -4 -14 21 -14 25
-2 25 8 0 18 -9 21 -21z m5393 2 c1 -5 8 -15 15 -24 11 -15 15 -15 46 0 26 13
37 14 52 5 10 -7 26 -12 34 -12 8 0 15 -4 15 -9 0 -5 13 -12 29 -16 16 -3 32
-12 34 -20 6 -15 -19 -22 -103 -31 -44 -5 -59 -3 -69 10 -11 13 -11 16 0 20
38 12 60 13 65 5 3 -5 13 -9 22 -9 28 0 -2 21 -43 30 -46 10 -91 -6 -74 -27
15 -17 1 -17 -40 0 -17 7 -28 16 -24 20 3 4 -5 7 -19 7 -23 0 -25 4 -23 33 2
17 3 34 4 36 2 6 76 -11 79 -18z m227 9 c-3 -5 -3 -15 1 -21 4 -8 9 -7 15 2 7
11 9 10 9 -3 0 -17 -29 -25 -42 -12 -9 8 3 44 14 44 5 0 6 -4 3 -10z m-180
-10 c3 -6 -1 -7 -9 -4 -18 7 -21 14 -7 14 6 0 13 -4 16 -10z m-160 -10 c-3 -5
-18 -10 -33 -9 l-27 1 25 8 c35 11 42 11 35 0z m-4248 -22 c-3 -8 -6 -5 -6 6
-1 11 2 17 5 13 3 -3 4 -12 1 -19z m243 12 c13 -8 13 -10 -2 -10 -9 0 -20 5
-23 10 -8 13 5 13 25 0z m2708 -6 c34 -16 42 -34 17 -34 -8 0 -15 5 -15 11 0
6 -6 9 -13 6 -7 -3 -19 4 -25 14 -15 23 -5 24 36 3z m363 7 c-9 -6 -10 -10 -2
-16 16 -9 44 2 36 15 -7 12 12 12 40 0 19 -9 19 -9 -2 -16 -28 -8 -31 -28 -3
-21 24 6 27 -8 3 -18 -10 -3 -19 -1 -21 4 -6 17 -26 13 -40 -9 -7 -11 -17 -20
-24 -20 -6 0 -3 10 8 22 l19 21 -27 -18 c-30 -19 -29 -35 3 -35 10 0 19 -4 19
-10 0 -5 -9 -10 -19 -10 -11 0 -23 -4 -26 -10 -3 -5 0 -10 9 -10 28 0 46 12
46 31 0 10 5 19 10 19 6 0 10 -9 10 -19 0 -26 -55 -54 -80 -41 -29 16 -50 12
-43 -6 5 -14 3 -15 -13 -6 -15 9 -21 7 -32 -11 -12 -21 -12 -21 -10 8 2 34
-10 59 -32 68 -12 4 -11 6 3 6 10 1 20 -6 23 -14 9 -24 31 -18 38 10 4 14 4
30 1 35 -3 5 11 4 31 -1 42 -12 73 4 53 28 -10 11 -14 11 -29 -2 -9 -8 -23
-15 -31 -14 -10 0 -10 2 -1 6 6 2 12 9 12 15 0 7 -4 7 -12 1 -25 -19 -48 -23
-48 -8 0 8 15 19 33 24 42 12 117 14 98 2z m-4320 -30 c-14 -25 -31 -37 -65
-45 -26 -6 -28 -6 -16 9 7 9 20 13 27 10 18 -6 43 17 43 40 0 9 5 13 10 10 6
-4 7 -13 1 -24z m-901 9 c-10 -6 -11 -10 -2 -10 6 0 12 -4 12 -9 0 -6 -21 -13
-47 -16 -74 -11 -78 -11 -80 0 -1 6 8 9 20 7 17 -2 19 -1 8 7 -15 10 -16 10
54 24 11 3 27 5 35 6 13 1 13 0 0 -9z m420 0 c0 -5 -4 -10 -10 -10 -5 0 -10 5
-10 10 0 6 5 10 10 10 6 0 10 -4 10 -10z m4600 -10 c0 -5 -7 -10 -15 -10 -9 0
-34 -9 -56 -19 -36 -18 -40 -18 -37 -3 2 10 21 21 48 28 59 16 60 16 60 4z
m37 4 c-3 -3 -12 -4 -19 -1 -8 3 -5 6 6 6 11 1 17 -2 13 -5z m1057 -2 c2 -4
-11 -6 -30 -4 -19 2 -34 6 -34 8 0 8 59 4 64 -4z m-151 -9 c-7 -2 -13 -9 -13
-14 0 -4 7 -6 16 -2 11 4 15 1 12 -12 -2 -10 3 -20 10 -22 8 -3 12 6 12 26 0
34 11 39 30 16 9 -11 16 -13 24 -5 16 16 26 12 26 -10 0 -21 5 -23 59 -20 22
1 31 -2 26 -9 -3 -6 -11 -9 -16 -6 -5 4 -9 -1 -9 -9 0 -9 9 -16 20 -16 11 0
20 6 20 13 0 15 66 21 76 6 9 -14 -16 -30 -38 -25 -10 2 -20 1 -23 -4 -8 -13
-68 -20 -100 -12 -22 6 -33 5 -40 -5 -11 -15 -49 -7 -39 8 5 9 -12 12 -51 10
-17 -1 -17 0 -3 7 16 7 16 8 -1 30 -15 21 -19 22 -30 8 -10 -12 -18 -13 -32
-5 -40 21 -14 59 41 58 19 0 29 -3 23 -6z m-556 -9 c-3 -3 -12 -4 -19 -1 -8 3
-5 6 6 6 11 1 17 -2 13 -5z m-5620 -10 c-3 -3 -12 -4 -19 -1 -8 3 -5 6 6 6 11
1 17 -2 13 -5z m5583 -20 c0 -23 -25 -44 -40 -34 -11 7 -10 11 3 25 10 9 17
21 17 26 0 6 5 7 10 4 6 -3 10 -13 10 -21z m-5581 5 c12 0 11 -2 -4 -9 -27
-12 -47 -12 -40 -1 3 5 -3 12 -12 14 -10 2 -5 3 11 1 16 -2 36 -4 45 -5z
m5111 -10 c0 -11 -4 -17 -10 -14 -5 3 -10 13 -10 21 0 8 5 14 10 14 6 0 10 -9
10 -21z m200 11 c0 -5 -4 -10 -10 -10 -5 0 -10 5 -10 10 0 6 5 10 10 10 6 0
10 -4 10 -10z m208 -25 c-10 -21 -38 -36 -38 -19 0 16 23 44 35 44 12 0 12 -5
3 -25z m152 -1 c0 -8 -4 -12 -10 -9 -5 3 -10 13 -10 21 0 8 5 12 10 9 6 -3 10
-13 10 -21z m311 16 c28 -15 23 -28 -8 -22 -22 4 -25 2 -20 -12 4 -10 7 -22 7
-27 0 -5 9 -9 19 -9 11 0 26 -7 34 -15 13 -13 19 -13 47 1 22 11 35 13 42 6
14 -14 -27 -38 -80 -47 -23 -4 -56 -14 -73 -22 -30 -15 -59 -12 -59 7 0 5 6
10 14 10 21 0 28 17 21 50 -5 22 -10 27 -23 23 -24 -9 -32 -24 -21 -44 6 -13
3 -21 -16 -33 -14 -9 -25 -12 -25 -7 0 6 -17 18 -37 28 l-38 18 40 4 c32 2 36
5 20 11 -18 8 -18 9 -1 9 12 1 16 6 12 16 -4 10 1 15 14 15 11 0 19 3 19 8 -3
20 3 31 19 35 32 9 73 7 93 -3z m436 4 c-3 -3 -12 -4 -19 -1 -8 3 -5 6 6 6 11
1 17 -2 13 -5z m-792 -23 c-3 -6 -11 -8 -17 -5 -6 4 -5 9 3 15 16 10 23 4 14
-10z m-5493 -42 c21 -23 37 -43 35 -45 -5 -5 -47 35 -47 45 0 23 -94 34 -150
17 l-25 -7 25 22 c21 18 33 20 75 15 41 -5 55 -12 87 -47z m112 42 c3 -4 -6
-6 -19 -3 -14 2 -25 6 -25 8 0 8 39 4 44 -5z m4973 2 c-4 -3 -19 -8 -34 -9
-21 -2 -24 -1 -13 6 17 11 57 14 47 3z m-4150 -9 c-3 -3 -12 -4 -19 -1 -8 3
-5 6 6 6 11 1 17 -2 13 -5z m3985 -6 c14 -7 31 -20 37 -29 9 -15 5 -17 -31
-14 -39 3 -58 16 -58 43 0 15 19 15 52 0z m743 -11 c-17 -6 -33 -15 -37 -21
-5 -7 -13 -6 -24 6 -20 19 -13 25 41 30 43 5 54 -4 20 -15z m-519 2 c4 -8 -1
-9 -17 -4 l-24 6 25 -20 c14 -11 21 -23 17 -27 -4 -4 -7 -2 -7 5 0 8 -5 9 -19
1 -13 -7 -22 -7 -26 0 -3 5 1 10 11 10 13 0 14 3 5 13 -6 8 -8 17 -4 20 10 11
31 8 39 -4z m401 -11 c3 6 11 12 19 12 9 0 12 -5 9 -10 -3 -6 7 -18 24 -28 32
-18 40 -31 19 -33 -7 -1 1 -5 17 -9 l30 -8 -34 -1 c-28 -1 -33 -4 -28 -21 3
-12 1 -18 -5 -14 -5 3 -8 14 -5 24 6 22 -30 40 -58 29 -11 -4 -14 -8 -6 -8 8
-1 12 -3 9 -6 -11 -11 -38 8 -38 26 0 15 -7 19 -31 19 -37 0 -30 17 14 28 21
6 37 5 46 -2 11 -8 15 -8 18 2z m-5427 -14 c0 -8 -4 -12 -10 -9 -5 3 -10 10
-10 16 0 5 5 9 10 9 6 0 10 -7 10 -16z m1927 -14 c8 0 27 -10 41 -21 l27 -22
-28 7 c-31 7 -67 35 -66 51 0 5 3 4 6 -2 2 -7 11 -13 20 -13z m-1967 0 c0 -5
-2 -10 -4 -10 -3 0 -8 5 -11 10 -3 6 -1 10 4 10 6 0 11 -4 11 -10z m4952 -16
c3 -3 4 -14 1 -25 -4 -14 -11 -18 -24 -14 -11 4 -19 2 -19 -5 0 -17 -41 -8
-54 12 -14 24 -1 34 19 14 22 -22 35 -20 35 4 0 19 28 28 42 14z m401 -42 c23
-15 59 -35 80 -45 20 -9 37 -21 37 -26 0 -12 -25 -21 -58 -21 -20 0 -23 3 -14
12 15 15 16 28 2 28 -5 0 -10 -6 -10 -14 0 -15 -42 -46 -62 -46 -9 0 -9 3 2
10 13 8 12 10 -2 10 -10 0 -18 -7 -18 -15 0 -10 -11 -16 -32 -17 -57 -2 -68 1
-98 31 -28 29 -28 30 -8 37 l21 6 -21 12 c-22 12 -22 12 10 36 63 47 103 48
171 2z m797 17 c0 -5 -9 -9 -19 -9 -11 0 -21 -3 -24 -7 -2 -5 -2 -3 -1 4 2 6
-2 14 -9 16 -7 2 3 4 21 5 17 0 32 -4 32 -9z m-6160 -3 c0 -3 -4 -8 -10 -11
-5 -3 -10 -1 -10 4 0 6 5 11 10 11 6 0 10 -2 10 -4z m6255 -6 c3 -5 2 -10 -4
-10 -5 0 -13 5 -16 10 -3 6 -2 10 4 10 5 0 13 -4 16 -10z m-1152 -20 c-3 -11
-14 -20 -24 -20 -23 0 -24 4 -3 24 21 22 33 20 27 -4z m957 0 c10 0 22 -4 25
-10 4 -6 -6 -10 -24 -10 -35 0 -61 9 -61 20 0 11 34 18 38 8 2 -4 12 -8 22 -8z
m-470 -11 c0 -4 -7 -6 -15 -3 -8 4 -15 10 -15 15 0 4 7 6 15 3 8 -4 15 -10 15
-15z m590 10 c0 -6 7 -8 16 -5 8 3 13 2 10 -3 -3 -5 2 -12 11 -15 13 -5 14 -9
3 -19 -10 -9 -13 -9 -17 0 -3 8 -14 11 -29 7 -14 -4 -24 -2 -24 4 0 6 -8 13
-17 15 -14 4 -12 5 5 6 12 0 22 6 22 11 0 6 5 10 10 10 6 0 10 -5 10 -11z
m533 4 c-7 -2 -19 -2 -25 0 -7 3 -2 5 12 5 14 0 19 -2 13 -5z m-4600 -28 c17
-7 17 -8 0 -25 -25 -22 -66 -30 -81 -14 -9 10 -9 14 1 18 7 4 2 4 -10 2 -15
-3 -23 1 -23 9 0 21 75 28 113 10z m397 0 c10 -13 9 -15 -9 -15 -12 0 -21 6
-21 15 0 8 4 15 9 15 5 0 14 -7 21 -15z m2635 5 c3 -5 -1 -10 -10 -10 -9 0
-13 5 -10 10 3 6 8 10 10 10 2 0 7 -4 10 -10z m-3910 -16 c19 -14 19 -16 3
-28 -10 -7 -19 -24 -19 -37 -1 -21 -2 -20 -9 6 -10 41 -12 75 -2 75 4 0 16 -8
27 -16z m3798 -16 c19 -10 20 -13 5 -16 -10 -2 -18 -7 -18 -12 0 -5 8 -13 18
-19 12 -7 0 -8 -40 -4 -43 4 -58 3 -58 -7 0 -8 11 -11 33 -8 22 2 34 -1 34 -9
0 -7 -5 -9 -10 -6 -6 3 -7 1 -3 -5 11 -18 31 -15 50 7 12 13 28 18 49 17 61
-6 59 -5 45 -20 -9 -9 -20 -11 -36 -5 -30 11 -35 11 -27 -1 3 -5 -1 -10 -10
-10 -8 0 -24 -5 -34 -12 -15 -9 -28 -9 -60 2 -23 7 -41 17 -41 22 0 4 -7 8
-15 8 -8 0 -15 5 -15 10 0 6 -8 10 -17 10 -10 1 -29 9 -41 20 -21 17 -22 21
-9 35 13 13 17 13 27 0 15 -18 31 -10 23 10 -3 8 -1 15 5 15 15 0 35 -28 29
-43 -4 -10 5 -12 31 -10 52 4 68 11 54 25 -8 8 -15 8 -25 -1 -16 -12 -50 -4
-41 10 3 5 0 9 -5 9 -6 0 -11 4 -11 9 0 11 83 -4 113 -21z m837 22 c0 -23 -33
-60 -54 -60 -19 1 -19 2 -3 11 25 15 21 29 -9 29 -19 0 -25 -4 -21 -15 4 -8 2
-17 -3 -20 -6 -4 -10 -2 -10 3 0 5 -10 13 -22 16 -23 6 -23 7 -3 18 37 22 125
34 125 18z m430 0 c0 -5 -4 -10 -10 -10 -5 0 -10 5 -10 10 0 6 5 10 10 10 6 0
10 -4 10 -10z m-3730 -20 c0 -5 -9 -10 -21 -10 -11 0 -17 5 -14 10 3 6 13 10
21 10 8 0 14 -4 14 -10z m3368 -6 c18 -18 15 -24 -12 -22 -32 3 -52 34 -22 34
11 0 27 -6 34 -12z m392 6 c0 -5 -7 -10 -16 -10 -8 0 -12 5 -9 10 3 6 10 10
16 10 5 0 9 -4 9 -10z m-5064 -27 c-10 -10 -19 5 -10 18 6 11 8 11 12 0 2 -7
1 -15 -2 -18z m5014 7 c0 -5 -9 -10 -20 -10 -11 0 -20 5 -20 10 0 6 9 10 20
10 11 0 20 -4 20 -10z m-5335 -51 c7 -41 4 -51 -18 -55 -7 -1 -41 -15 -78 -32
-53 -24 -74 -29 -112 -25 -26 3 -47 11 -47 17 0 6 -3 28 -6 48 l-6 37 53 15
c30 8 76 16 102 18 27 1 50 5 53 10 3 4 16 8 29 8 19 0 24 -7 30 -41z m4734
22 c11 -11 32 -21 48 -22 32 -4 63 -26 63 -46 0 -7 7 -13 15 -13 25 0 17 -15
-15 -27 -16 -6 -29 -8 -28 -5 2 19 -4 22 -18 8 -8 -9 -24 -16 -34 -16 -10 0
-21 -4 -24 -9 -4 -5 -25 -12 -49 -16 -23 -4 -48 -12 -55 -18 -9 -7 -16 -7 -25
2 -9 10 -9 12 3 9 9 -2 16 6 18 20 2 15 -2 22 -12 22 -9 0 -25 9 -36 20 -19
19 -20 19 -20 2 0 -10 12 -23 28 -30 l27 -12 -27 4 c-32 4 -35 -2 -10 -20 13
-9 14 -16 6 -24 -15 -15 -70 -9 -66 8 1 6 -5 12 -13 12 -8 0 -15 -7 -15 -15 0
-17 -9 -19 -28 -6 -10 6 -10 10 3 21 21 17 19 30 -6 30 -39 0 -13 25 29 28 54
4 60 32 6 32 -39 0 -73 23 -52 36 19 12 58 14 58 3 0 -5 6 -9 14 -9 8 0 16 -5
18 -11 5 -15 101 -21 110 -6 14 21 9 37 -12 37 -11 0 -19 -6 -17 -12 1 -7 -9
-14 -23 -16 -20 -2 -22 -1 -10 7 12 8 8 12 -18 17 -62 13 -12 29 101 32 34 2
52 -3 66 -17z m315 2 c10 4 16 1 16 -9 0 -12 -6 -15 -25 -10 -22 6 -25 3 -25
-19 0 -14 -4 -25 -10 -25 -5 0 -10 9 -10 20 0 11 -6 20 -12 21 -7 0 -3 5 10
11 12 6 22 16 22 22 0 6 4 5 9 -3 5 -8 16 -11 25 -8z m246 1 c0 -2 -11 -4 -25
-4 -14 0 -25 4 -25 9 0 4 11 6 25 3 14 -2 25 -6 25 -8z m-3907 -1 c-7 -2 -19
-2 -25 0 -7 3 -2 5 12 5 14 0 19 -2 13 -5z m3537 -9 c0 -8 -4 -12 -10 -9 -5 3
-10 10 -10 16 0 5 5 9 10 9 6 0 10 -7 10 -16z m200 -19 c0 -14 -50 -35 -82
-35 -28 0 -13 16 22 23 17 4 30 13 30 21 0 10 6 13 15 10 8 -4 15 -12 15 -19z
m-720 -14 c0 -20 -13 -41 -25 -41 -8 0 -15 -7 -17 -16 -3 -14 -7 -13 -30 5
-14 12 -34 21 -43 21 -9 0 -14 4 -11 9 7 11 46 2 46 -11 0 -12 42 1 52 15 4 6
4 15 2 19 -3 4 2 8 10 8 9 0 16 -4 16 -9z m-40 -11 c0 -5 -4 -10 -10 -10 -5 0
-10 5 -10 10 0 6 5 10 10 10 6 0 10 -4 10 -10z m-4696 -42 c7 -30 -2 -35 -69
-42 -22 -2 -48 -7 -57 -11 -15 -6 -18 -2 -18 19 0 17 7 29 18 32 9 3 37 14 62
24 49 20 54 18 64 -22z m5710 27 c-4 -8 -17 -15 -30 -15 -15 0 -24 -6 -24 -15
0 -8 5 -15 11 -15 5 0 7 5 4 10 -4 6 8 10 30 10 20 0 34 4 31 9 -13 20 24 18
63 -4 23 -14 39 -20 36 -15 -4 6 -1 10 4 10 6 0 11 -4 11 -10 0 -5 4 -10 9
-10 5 0 29 -12 52 -26 l44 -26 -35 6 c-22 4 -30 3 -21 -3 16 -10 5 -18 -39
-26 -21 -4 -41 0 -57 10 -14 9 -31 14 -38 11 -8 -3 -15 -1 -17 4 -4 12 -78 1
-78 -11 0 -5 10 -9 22 -9 34 0 17 -8 -29 -14 -36 -4 -40 -2 -36 14 4 14 -3 19
-34 24 -21 4 -45 11 -53 16 -13 8 -12 12 5 25 11 9 14 14 8 10 -7 -3 -18 -3
-24 1 -16 10 50 36 73 29 10 -4 18 -1 18 5 0 6 4 9 8 6 5 -3 22 -1 38 4 44 13
54 12 48 -5z m-4774 -25 c0 -4 -7 -13 -15 -20 -13 -11 -19 -10 -34 7 -18 19
-17 19 15 20 19 1 34 -2 34 -7z m830 -9 l75 -6 -95 -49 c-52 -27 -99 -55 -103
-62 -4 -8 -14 -14 -22 -14 -21 0 -122 -46 -152 -70 -27 -21 -63 -27 -63 -10 0
6 3 10 8 10 4 0 6 28 4 62 -3 84 -4 88 -14 88 -4 0 -8 6 -8 13 0 9 17 14 56
16 33 1 63 8 71 17 15 15 101 17 243 5z m2487 -5 c2 -2 -10 -7 -27 -11 -34 -7
-46 -3 -35 14 6 10 51 8 62 -3z m333 -15 c14 -10 44 -28 68 -41 42 -24 52 -42
30 -56 -7 -5 -9 -2 -5 9 3 9 0 18 -9 21 -17 6 -44 -3 -44 -15 0 -5 7 -9 15 -9
30 0 14 -16 -32 -33 -51 -18 -143 -23 -143 -8 0 5 33 11 74 13 41 2 78 7 83
11 11 12 -37 46 -76 53 -20 4 -42 2 -52 -5 -11 -6 -35 -11 -54 -11 -28 0 -35
-4 -35 -20 0 -27 -7 -25 -37 10 -16 20 -34 30 -53 30 -15 0 -33 6 -39 14 -9
11 -5 15 20 20 29 5 56 -8 62 -31 1 -4 8 -7 14 -7 7 1 10 -2 7 -7 -3 -5 -1 -9
5 -9 5 0 13 9 16 20 4 13 16 20 33 21 15 1 36 2 47 3 11 1 30 3 43 4 27 2 30
22 3 22 -11 0 -23 4 -26 10 -4 6 1 7 11 3 12 -5 15 -3 9 6 -10 17 31 6 65 -18z
m-5153 13 c-3 -3 -12 -4 -19 -1 -8 3 -5 6 6 6 11 1 17 -2 13 -5z m1228 -4 c3
-6 -1 -7 -9 -4 -18 7 -21 14 -7 14 6 0 13 -4 16 -10z m4065 0 c0 -6 15 -17 33
-25 24 -11 27 -14 11 -15 -11 0 -31 11 -44 25 -13 14 -18 25 -12 25 7 0 12 -5
12 -10z m773 3 c-7 -2 -21 -2 -30 0 -10 3 -4 5 12 5 17 0 24 -2 18 -5z m-3524
-17 c9 -11 7 -23 -9 -52 -11 -21 -20 -49 -20 -61 0 -13 -6 -23 -14 -23 -27 0
-29 22 -5 41 24 18 23 18 -25 4 -60 -18 -68 -25 -31 -25 52 0 12 -17 -80 -35
-86 -17 -160 -41 -217 -71 -14 -8 -41 -14 -60 -13 -30 0 -31 1 -10 9 12 5 22
13 22 19 0 13 54 37 135 60 39 11 59 20 46 20 l-24 1 22 19 c12 10 48 31 79
47 31 15 68 35 82 44 43 30 92 37 109 16z m-4010 -96 c0 -8 -5 -2 -11 13 -5
16 -16 26 -22 24 -19 -7 -37 28 -23 42 8 8 17 2 34 -26 13 -21 23 -45 22 -53z
m2326 80 c-3 -5 -11 -10 -16 -10 -6 0 -7 5 -4 10 3 6 11 10 16 10 6 0 7 -4 4
-10z m5125 1 c0 -4 -11 -6 -25 -3 -14 2 -25 1 -25 -2 0 -6 46 -28 65 -31 6 0
9 -6 8 -13 -2 -7 3 -12 11 -12 8 0 21 -13 30 -30 13 -28 13 -30 -4 -30 -10 0
-25 -2 -32 -5 -8 -3 -24 4 -36 15 -21 20 -22 20 -22 1 0 -22 -29 -36 -44 -21
-7 7 -5 10 7 10 9 0 17 5 17 10 0 9 -14 14 -33 11 -4 -1 -15 5 -23 13 -8 9
-22 12 -31 9 -12 -5 -15 -2 -10 10 4 12 2 14 -10 10 -11 -4 -14 -2 -11 8 3 8
12 13 21 11 11 -2 14 3 10 19 -5 19 -4 20 15 8 17 -10 23 -10 37 4 17 17 85
24 85 8z m-5205 -21 c3 -5 1 -10 -4 -10 -6 0 -11 5 -11 10 0 6 2 10 4 10 3 0
8 -4 11 -10z m108 0 c-13 -5 -23 -14 -23 -19 0 -16 -81 -49 -115 -47 -19 1
-30 6 -30 15 0 16 44 32 92 32 18 1 37 7 44 15 6 8 21 14 33 13 21 0 21 0 -1
-9z m5192 -19 c11 -9 24 -21 28 -28 4 -7 26 -17 47 -23 22 -6 40 -15 40 -19 0
-14 -26 -20 -51 -14 -22 6 -22 7 -3 14 16 6 14 8 -9 8 -16 1 -26 5 -22 11 3 6
-1 10 -9 10 -8 0 -18 9 -21 20 -4 11 -12 20 -18 19 -17 -3 -47 12 -47 23 0 12
40 0 65 -21z m-965 -5 c0 -2 -11 -6 -25 -8 -13 -3 -22 -1 -19 3 5 9 44 13 44
5z m-6156 -14 c-15 -10 -34 -47 -34 -67 0 -9 -9 -28 -20 -42 -11 -14 -17 -29
-14 -34 3 -5 1 -16 -4 -25 -7 -13 -10 -9 -16 17 -5 26 -9 30 -16 19 -5 -8 -6
-18 -4 -22 3 -4 -2 -5 -12 -1 -12 4 -15 14 -11 40 4 19 12 42 19 51 16 19 98
72 112 72 7 0 7 -3 0 -8z m5839 1 c-7 -2 -21 -2 -30 0 -10 3 -4 5 12 5 17 0
24 -2 18 -5z m1023 -18 c32 -30 28 -40 -8 -21 -15 8 -29 12 -32 8 -3 -3 -6 1
-6 10 0 13 9 28 16 28 2 0 15 -11 30 -25z m-666 6 c0 -5 -9 -11 -21 -14 -16
-4 -18 -3 -8 9 13 16 29 19 29 5z m1160 5 c0 -11 -19 -15 -25 -6 -3 5 1 10 9
10 9 0 16 -2 16 -4z m-1453 -29 c3 -4 1 -7 -5 -7 -22 0 -12 -20 13 -26 29 -7
24 -24 -8 -24 -22 -1 -22 -1 -3 -15 14 -11 16 -15 5 -15 -8 0 -25 -3 -39 -6
-24 -5 -24 -5 -6 10 17 14 18 16 3 16 -21 0 -22 16 -2 24 8 3 15 13 15 21 0 9
-5 13 -10 10 -6 -4 -8 -11 -5 -16 7 -11 -10 -10 -45 1 -24 8 -24 8 -2 9 27 1
30 21 2 21 -11 0 -20 4 -20 8 0 10 96 -1 107 -11z m773 8 c-15 -18 -40 -20
-40 -4 0 6 -9 9 -20 6 -11 -3 -20 -1 -20 4 0 5 21 9 46 9 40 0 45 -2 34 -15z
m-125 -5 c-3 -6 4 -10 16 -10 12 0 28 -8 35 -17 8 -11 13 -13 14 -5 0 6 4 12
10 12 5 0 7 -6 4 -14 -3 -9 3 -17 16 -21 12 -4 19 -9 16 -12 -3 -4 -23 1 -43
10 -59 24 -97 28 -122 11 -23 -16 -61 -11 -61 9 0 7 16 13 35 14 19 1 42 9 51
17 17 18 39 22 29 6z m1078 3 c-7 -2 -19 -2 -25 0 -7 3 -2 5 12 5 14 0 19 -2
13 -5z m37 -3 c0 -5 -4 -10 -10 -10 -5 0 -10 5 -10 10 0 6 5 10 10 10 6 0 10
-4 10 -10z m-8554 -22 l7 -23 10 23 c13 29 31 23 37 -14 l5 -29 14 33 c12 30
31 44 31 23 0 -5 18 -7 40 -4 36 5 40 3 40 -16 0 -12 6 -30 12 -41 10 -16 10
-24 0 -41 -13 -21 -13 -21 30 -15 23 4 50 8 58 9 8 1 15 -2 15 -8 0 -5 -6 -9
-12 -9 -7 1 -13 -3 -13 -8 0 -17 -24 -34 -56 -41 -18 -3 -49 -18 -69 -32 -21
-14 -44 -25 -51 -25 -8 0 -14 -4 -14 -8 0 -5 -18 -17 -40 -27 -27 -12 -37 -21
-28 -26 8 -5 2 -10 -18 -14 -42 -9 -74 -27 -74 -40 0 -7 -22 -24 -49 -38 l-49
-27 3 72 c3 88 9 104 46 124 33 16 33 18 18 46 -10 19 -9 20 15 16 25 -5 33 1
19 16 -4 3 -12 21 -18 39 l-11 32 51 -1 c75 -2 75 -2 75 -24 0 -11 4 -20 9
-20 5 0 11 -11 13 -25 3 -15 1 -22 -5 -18 -7 4 -8 -1 -2 -13 4 -10 7 -26 7
-35 0 -14 4 -15 33 -6 35 10 35 12 3 58 -11 14 -21 32 -22 40 -6 29 -19 49
-31 49 -14 0 -55 46 -55 61 0 18 19 8 26 -13z m7630 -8 c5 0 29 -14 53 -30 25
-17 54 -29 65 -28 10 2 21 -3 24 -11 3 -9 0 -11 -8 -6 -10 6 -12 4 -7 -8 6
-17 2 -19 -50 -21 -10 -1 -21 -5 -25 -11 -9 -12 -105 -8 -126 6 -13 7 -4 9 35
4 28 -3 54 -2 57 3 2 4 -16 9 -42 10 -25 1 -50 6 -54 10 -13 13 30 62 53 62
11 0 18 4 14 10 -3 5 -11 8 -18 6 -7 -1 -9 -1 -4 1 19 11 4 21 -19 13 -14 -6
-31 -10 -37 -9 -7 0 4 6 23 14 29 11 37 11 46 -1 6 -8 15 -14 20 -14z m-7222
-13 c7 -6 6 -7 -4 -4 -8 2 -16 12 -17 23 -2 13 -1 15 4 4 3 -8 11 -19 17 -23z
m1499 16 c2 -5 0 -27 -5 -49 -8 -38 -14 -45 -69 -74 -33 -17 -63 -38 -66 -46
-3 -8 -9 -14 -13 -14 -8 0 11 99 27 140 7 18 23 28 54 36 55 15 67 16 72 7z
m5404 1 c-3 -3 -12 -4 -19 -1 -8 3 -5 6 6 6 11 1 17 -2 13 -5z m1083 2 c0 -2
-7 -6 -15 -10 -8 -3 -15 -1 -15 4 0 6 7 10 15 10 8 0 15 -2 15 -4z m-387 -21
c-3 -9 -8 -14 -10 -11 -3 3 -2 9 2 15 9 16 15 13 8 -4z m330 8 c-7 -2 -19 -2
-25 0 -7 3 -2 5 12 5 14 0 19 -2 13 -5z m-425 -31 c2 -7 -7 -12 -22 -12 -16 0
-26 6 -26 15 0 18 42 15 48 -3z m332 8 c0 -5 -8 -10 -17 -10 -15 0 -16 2 -3
10 19 12 20 12 20 0z m-1045 -10 c-3 -5 -2 -10 4 -10 5 0 11 5 13 11 5 15 58
-10 82 -39 11 -14 24 -21 36 -17 13 4 19 -1 24 -20 5 -19 12 -25 24 -21 9 3
28 -4 42 -15 21 -17 22 -19 3 -10 -31 16 -39 14 -69 -16 -22 -22 -37 -27 -81
-29 -30 -1 -57 -4 -60 -7 -3 -4 -13 3 -22 14 -11 13 -22 18 -34 13 -17 -6 -17
-7 0 -19 15 -12 14 -12 -12 -8 -17 3 -32 9 -35 12 -10 11 -50 31 -64 31 -9 0
-12 7 -9 20 4 16 0 20 -21 20 -16 0 -25 4 -21 10 3 6 15 10 26 10 10 0 19 5
19 10 0 6 10 10 23 10 12 0 31 7 41 15 11 8 28 15 38 15 10 0 18 7 18 15 0 8
9 15 21 15 11 0 17 -4 14 -10z m540 0 c3 -5 1 -10 -4 -10 -6 0 -11 5 -11 10 0
6 2 10 4 10 3 0 8 -4 11 -10z m-1021 -22 c-3 -5 -12 -4 -20 3 -19 16 -18 18 6
12 11 -3 17 -9 14 -15z m701 12 c-3 -5 -12 -10 -20 -10 -8 0 -17 5 -20 10 -4
6 5 10 20 10 15 0 24 -4 20 -10z m90 -4 c18 -13 18 -14 -6 -27 l-24 -13 25 -6
25 -6 -27 -6 c-15 -3 -25 -2 -23 3 3 4 0 11 -6 15 -8 5 -7 9 2 14 10 7 10 11
0 24 -11 13 -11 16 1 16 8 0 23 -6 33 -14z m-4045 -16 c0 -16 -7 -20 -30 -20
-36 0 -39 13 -7 28 32 15 37 14 37 -8z m3986 1 c0 -11 -5 -17 -13 -14 -17 6
-17 20 0 26 6 3 12 6 12 6 1 1 1 -7 1 -18z m722 -8 c16 -16 16 -16 -3 -8 -27
11 -93 18 -79 8 9 -6 8 -11 -2 -21 -13 -12 -18 -8 -15 11 0 4 -6 7 -14 7 -8 0
-15 -4 -15 -9 0 -11 -86 -24 -101 -15 -12 7 47 37 60 30 3 -2 15 0 26 5 38 15
125 10 143 -8z m155 -33 c3 -11 1 -18 -4 -14 -5 3 -9 12 -9 20 0 20 7 17 13
-6z m-7873 -20 c0 -5 -8 -7 -17 -4 -15 5 -15 3 1 -10 11 -9 16 -16 10 -16 -18
0 -30 15 -31 38 -2 19 1 21 18 12 10 -6 19 -15 19 -20z m7450 2 c0 -15 5 -33
12 -40 9 -9 9 -12 0 -12 -6 0 -14 11 -18 25 -3 14 -10 25 -16 25 -5 0 -6 -4
-3 -10 9 -14 -7 -12 -28 4 -10 8 -14 17 -8 20 5 3 12 0 15 -6 3 -9 8 -8 16 5
16 25 30 21 30 -11z m-7120 9 c0 -4 11 -20 25 -35 38 -41 23 -79 -37 -93 -33
-7 -36 -19 -7 -28 19 -6 18 -8 -13 -30 -27 -19 -34 -20 -41 -9 -5 8 -5 24 -2
35 5 13 3 19 -3 15 -15 -9 -22 20 -9 34 8 9 9 11 1 7 -11 -6 -24 21 -24 50 0
7 21 24 48 37 52 27 62 30 62 17z m-1102 -34 c10 4 13 1 10 -8 -3 -8 -16 -14
-30 -14 -20 -1 -24 3 -20 18 3 12 8 15 15 8 5 -5 16 -7 25 -4z m1212 -20 c0
-7 -4 -18 -9 -26 -6 -10 -12 -6 -24 17 -8 17 -13 33 -10 36 9 8 43 -13 43 -27z
m5950 23 c11 -7 7 -10 -17 -10 -18 0 -33 5 -33 10 0 13 30 13 50 0z m1697 -16
c-2 -3 -18 -9 -35 -13 -24 -7 -30 -6 -26 4 3 8 15 15 27 17 23 4 42 -1 34 -8z
m-1772 -4 c-3 -5 2 -10 13 -10 24 0 32 -8 25 -26 -7 -19 -39 -18 -47 2 -9 24
-7 44 5 44 5 0 7 -4 4 -10z m123 -27 c-16 -19 -29 -5 -16 17 9 13 14 16 20 7
4 -6 2 -17 -4 -24z m-6454 18 c8 -12 -3 -41 -15 -41 -5 0 -9 11 -9 25 0 25 14
34 24 16z m1265 -49 c1 -7 -3 -10 -9 -7 -5 3 -10 21 -9 38 1 31 1 31 9 7 4
-14 8 -31 9 -38z m6291 48 c0 -5 -2 -10 -4 -10 -3 0 -8 5 -11 10 -3 6 -1 10 4
10 6 0 11 -4 11 -10z m-1140 -25 c0 -8 -4 -15 -10 -15 -5 0 -7 7 -4 15 4 8 8
15 10 15 2 0 4 -7 4 -15z m1175 5 c3 -5 1 -10 -4 -10 -6 0 -11 5 -11 10 0 6 2
10 4 10 3 0 8 -4 11 -10z m-1325 -54 c0 0 -11 -1 -24 -1 -13 0 -22 3 -19 8 2
4 0 7 -6 7 -6 0 -15 9 -21 21 -10 18 -7 17 29 -7 23 -15 41 -27 41 -28z m1350
14 c0 -5 -5 -10 -11 -10 -5 0 -7 5 -4 10 3 6 8 10 11 10 2 0 4 -4 4 -10z
m-1164 -47 c-11 -11 -17 4 -9 23 7 18 8 18 11 1 2 -10 1 -21 -2 -24z m144 22
c-14 -17 -40 -20 -40 -6 0 5 10 12 23 14 12 2 24 5 26 6 2 0 -2 -6 -9 -14z
m964 -14 c-2 -3 -12 3 -22 13 -16 17 -16 18 5 5 12 -7 20 -15 17 -18z m-4581
-11 c-3 -10 -11 -25 -19 -31 -17 -14 -18 -8 -2 26 13 30 28 34 21 5z m3324
-14 c-10 -26 -25 -18 -19 10 3 17 8 22 15 15 5 -5 7 -17 4 -25z m503 -6 c0
-13 -27 -13 -35 0 -3 6 -16 10 -28 11 -20 1 -20 2 3 8 26 8 60 -3 60 -19z
m-5530 10 c0 -5 -2 -10 -4 -10 -3 0 -8 5 -11 10 -3 6 -1 10 4 10 6 0 11 -4 11
-10z m6790 -10 c0 -5 -4 -10 -10 -10 -5 0 -10 5 -10 10 0 6 5 10 10 10 6 0 10
-4 10 -10z m-5167 -29 c4 -4 -14 -18 -40 -31 -27 -12 -56 -30 -66 -38 -24 -21
-27 -14 -15 38 l10 45 52 -3 c28 -2 54 -7 59 -11z m4817 9 c0 -5 -4 -10 -10
-10 -5 0 -10 5 -10 10 0 6 5 10 10 10 6 0 10 -4 10 -10z m267 4 c-3 -3 -12 -4
-19 -1 -8 3 -5 6 6 6 11 1 17 -2 13 -5z m-5273 -19 c-4 -8 -8 -15 -10 -15 -2
0 -4 7 -4 15 0 8 4 15 10 15 5 0 7 -7 4 -15z m4976 5 c0 -5 -2 -10 -4 -10 -3
0 -8 5 -11 10 -3 6 -1 10 4 10 6 0 11 -4 11 -10z m-1000 -20 c10 -19 10 -20
-9 -8 -11 6 -17 16 -15 20 8 12 12 10 24 -12z m230 16 c0 -2 -9 -6 -20 -9 -11
-3 -18 -1 -14 4 5 9 34 13 34 5z m-6725 -26 c3 -5 1 -10 -4 -10 -6 0 -11 5
-11 10 0 6 2 10 4 10 3 0 8 -4 11 -10z m6622 -3 c14 4 15 3 7 -6 -12 -13 -64
-5 -64 10 0 6 8 5 19 -1 11 -5 28 -7 38 -3z m908 2 c11 -17 -1 -21 -15 -4 -8
9 -8 15 -2 15 6 0 14 -5 17 -11z m-968 -35 c-9 -10 -38 16 -31 28 4 6 13 4 22
-6 9 -8 13 -19 9 -22z"/>
<path d="M4388 4743 c-10 -2 -18 -12 -18 -20 0 -9 -7 -25 -16 -35 -16 -16 -16
-18 0 -24 9 -3 25 -4 36 -1 11 3 21 -1 24 -9 3 -8 0 -14 -7 -14 -8 0 -6 -4 3
-10 8 -5 11 -10 5 -10 -21 -1 21 -20 44 -20 29 0 75 46 66 67 -4 11 0 14 14
10 11 -3 28 1 37 8 27 19 9 26 -156 59 -8 2 -23 1 -32 -1z m37 -53 c4 -6 -7
-10 -27 -10 -25 0 -29 3 -18 10 19 13 37 13 45 0z"/>
<path d="M4460 4468 c-18 -19 -27 -48 -16 -48 10 0 56 48 56 59 0 18 -17 13
-40 -11z"/>
<path d="M4231 4395 c0 -5 6 -19 14 -29 8 -11 15 -15 15 -10 0 6 -7 19 -15 30
-8 10 -14 15 -14 9z"/>
<path d="M6370 4570 c0 -5 4 -10 9 -10 5 0 14 -13 20 -28 10 -23 23 -31 64
-42 50 -13 51 -14 22 -21 l-30 -7 28 -1 c30 -1 72 30 65 49 -4 13 -134 70
-160 70 -10 0 -18 -4 -18 -10z m90 -40 c0 -5 -9 -10 -20 -10 -11 0 -20 5 -20
10 0 6 9 10 20 10 11 0 20 -4 20 -10z"/>
<path d="M6483 4314 c-33 -16 -44 -46 -22 -59 6 -4 32 -8 59 -9 40 -1 47 1 37
12 -7 9 -25 12 -49 10 -42 -4 -48 4 -20 24 17 12 38 38 30 38 -2 0 -18 -8 -35
-16z"/>
<path d="M6570 4171 c0 -9 30 -24 36 -18 2 1 -6 8 -16 15 -11 7 -20 8 -20 3z"/>
<path d="M4050 4780 c0 -16 2 -30 4 -30 2 0 6 14 8 30 3 17 1 30 -4 30 -4 0
-8 -13 -8 -30z"/>
<path d="M4119 4723 c-1 -5 -1 -11 0 -15 0 -4 -7 -4 -16 -1 -13 5 -15 2 -10
-11 4 -10 7 -20 7 -23 0 -4 9 2 20 12 21 19 27 45 10 45 -5 0 -11 -3 -11 -7z"/>
<path d="M2267 3213 c-4 -3 -7 -11 -7 -17 0 -6 5 -5 12 2 6 6 9 14 7 17 -3 3
-9 2 -12 -2z"/>
<path d="M9400 2080 c0 -5 11 -10 25 -10 14 0 25 5 25 10 0 6 -11 10 -25 10
-14 0 -25 -4 -25 -10z"/>
<path d="M9698 1493 c6 -2 18 -2 25 0 6 3 1 5 -13 5 -14 0 -19 -2 -12 -5z"/>
<path d="M10921 1444 c0 -11 3 -14 6 -6 3 7 2 16 -1 19 -3 4 -6 -2 -5 -13z"/>
<path d="M11146 1282 c-4 -6 -21 -16 -39 -22 l-32 -10 39 5 c44 5 50 9 44 26
-3 10 -6 10 -12 1z"/>
<path d="M11005 1260 c-3 -5 3 -10 15 -10 12 0 18 5 15 10 -3 6 -10 10 -15 10
-5 0 -12 -4 -15 -10z"/>
<path d="M10935 1240 c3 -5 8 -10 11 -10 2 0 4 5 4 10 0 6 -5 10 -11 10 -5 0
-7 -4 -4 -10z"/>
<path d="M10182 1145 c-16 -12 -21 -12 -25 -2 -2 6 -4 0 -3 -15 1 -32 11 -36
21 -10 6 16 7 16 21 -2 8 -11 14 -32 14 -48 0 -15 5 -28 10 -28 15 0 12 57 -2
63 -8 3 -6 6 5 6 9 1 17 6 17 12 0 6 -9 9 -20 6 -21 -5 -28 9 -8 15 8 3 8 7 2
11 -6 3 -20 0 -32 -8z"/>
<path d="M10285 1150 c-8 -13 15 -24 27 -12 6 6 4 11 -6 15 -8 3 -18 2 -21 -3z"/>
<path d="M10445 1090 c-8 -13 5 -13 25 0 13 8 13 10 -2 10 -9 0 -20 -4 -23
-10z"/>
<path d="M10375 1080 c-3 -5 -2 -10 4 -10 5 0 18 -3 28 -7 16 -6 16 -5 4 10
-15 19 -27 22 -36 7z"/>
<path d="M10160 1070 c0 -5 5 -10 11 -10 5 0 7 5 4 10 -3 6 -8 10 -11 10 -2 0
-4 -4 -4 -10z"/>
<path d="M10046 1041 c-4 -7 -5 -15 -2 -18 9 -9 19 4 14 18 -4 11 -6 11 -12 0z"/>
<path d="M10720 1080 c0 -5 5 -10 10 -10 6 0 10 5 10 10 0 6 -4 10 -10 10 -5
0 -10 -4 -10 -10z"/>
<path d="M10770 1060 c19 -13 30 -13 30 0 0 6 -10 10 -22 10 -19 0 -20 -2 -8
-10z"/>
<path d="M9660 980 c-18 -11 -4 -40 20 -40 13 0 20 7 20 19 0 22 -21 33 -40
21z"/>
<path d="M10575 980 c-4 -6 -10 -8 -15 -5 -4 3 -10 -4 -13 -15 -6 -22 17 -48
28 -30 3 5 22 10 41 10 25 0 34 4 34 17 0 13 -3 14 -12 5 -16 -16 -38 -15 -38
2 0 19 -17 29 -25 16z"/>
<path d="M10213 963 c9 -2 25 -2 35 0 9 3 1 5 -18 5 -19 0 -27 -2 -17 -5z"/>
<path d="M10250 920 c0 -5 5 -10 10 -10 6 0 10 5 10 10 0 6 -4 10 -10 10 -5 0
-10 -4 -10 -10z"/>
<path d="M10270 880 c0 -11 -7 -23 -15 -26 -8 -4 -15 -10 -15 -15 0 -11 33 1
42 15 11 16 10 46 -2 46 -5 0 -10 -9 -10 -20z"/>
<path d="M10312 880 c0 -14 2 -19 5 -12 2 6 2 18 0 25 -3 6 -5 1 -5 -13z"/>
<path d="M10170 860 c-8 -5 -10 -10 -5 -10 6 0 17 5 25 10 8 5 11 10 5 10 -5
0 -17 -5 -25 -10z"/>
<path d="M9968 893 c7 -3 16 -2 19 1 4 3 -2 6 -13 5 -11 0 -14 -3 -6 -6z"/>
<path d="M9760 810 c0 -11 -4 -20 -9 -20 -4 0 -6 -11 -3 -25 3 -20 10 -25 31
-24 23 2 24 2 3 6 -20 4 -21 8 -16 44 4 21 4 39 0 39 -3 0 -6 -9 -6 -20z"/>
<path d="M9790 800 c0 -19 3 -21 12 -12 9 9 9 15 0 24 -9 9 -12 7 -12 -12z"/>
<path d="M9830 800 c0 -5 5 -10 10 -10 6 0 10 5 10 10 0 6 -4 10 -10 10 -5 0
-10 -4 -10 -10z"/>
<path d="M9810 770 c-12 -8 -11 -10 7 -10 12 0 25 5 28 10 8 13 -15 13 -35 0z"/>
<path d="M10146 721 c-11 -4 -15 -10 -10 -13 13 -8 64 2 64 13 0 11 -27 11
-54 0z"/>
<path d="M10230 685 c12 -15 30 -12 30 6 0 5 -10 9 -21 9 -18 0 -19 -2 -9 -15z"/>
<path d="M10105 650 c-7 -12 2 -30 16 -30 5 0 9 9 9 20 0 21 -15 27 -25 10z"/>
<path d="M10162 640 c0 -14 2 -19 5 -12 2 6 2 18 0 25 -3 6 -5 1 -5 -13z"/>
<path d="M9973 608 c2 -7 12 -13 22 -13 10 0 20 6 23 13 2 7 -6 12 -23 12 -17
0 -25 -5 -22 -12z"/>
<path d="M10905 630 c-4 -6 3 -10 14 -10 25 0 27 6 6 13 -8 4 -17 2 -20 -3z"/>
<path d="M10800 600 c0 -5 14 -10 30 -10 17 0 30 5 30 10 0 6 -13 10 -30 10
-16 0 -30 -4 -30 -10z"/>
<path d="M10889 593 c-12 -14 -12 -16 1 -11 8 2 30 -4 48 -14 18 -10 35 -18
37 -18 12 0 4 39 -10 50 -13 11 -14 10 -9 -4 5 -13 2 -15 -12 -10 -11 4 -24
11 -30 16 -7 5 -17 2 -25 -9z"/>
<path d="M9715 580 c-8 -13 12 -40 31 -40 10 0 11 6 5 22 -9 25 -26 34 -36 18z"/>
<path d="M10565 500 c-8 -13 5 -13 25 0 13 8 13 10 -2 10 -9 0 -20 -4 -23 -10z"/>
<path d="M10088 473 c7 -3 16 -2 19 1 4 3 -2 6 -13 5 -11 0 -14 -3 -6 -6z"/>
<path d="M2775 381 c-3 -5 -1 -12 4 -15 5 -3 11 1 15 9 6 16 -9 21 -19 6z"/>
<path d="M10215 420 c-3 -5 1 -10 9 -10 9 0 16 5 16 10 0 6 -4 10 -9 10 -6 0
-13 -4 -16 -10z"/>
<path d="M4510 440 c-9 -6 -10 -10 -3 -10 6 0 15 5 18 10 8 12 4 12 -15 0z"/>
<path d="M9849 404 c-9 -11 -22 -14 -41 -10 -21 4 -30 1 -35 -10 -5 -13 -7
-13 -14 -2 -6 9 -9 4 -9 -15 0 -16 4 -26 10 -22 6 3 10 -1 10 -9 0 -19 40 -22
57 -5 6 6 20 8 32 4 23 -7 29 -25 9 -25 -9 0 -8 -4 2 -10 23 -15 30 -12 30 15
0 18 -5 25 -19 25 -27 0 -35 17 -14 29 16 9 16 10 -3 11 -13 0 -24 -8 -27 -20
-3 -11 -11 -20 -19 -20 -21 0 -43 18 -34 27 5 4 11 2 13 -4 7 -20 30 -15 36 7
3 12 14 20 26 20 12 0 21 6 21 15 0 20 -14 19 -31 -1z"/>
<path d="M9924 328 c3 -13 6 -26 6 -30 0 -5 7 -8 15 -8 14 0 14 3 0 30 -18 35
-30 39 -21 8z"/>
<path d="M9728 323 c6 -2 18 -2 25 0 6 3 1 5 -13 5 -14 0 -19 -2 -12 -5z"/>
<path d="M9835 290 c3 -5 8 -10 11 -10 2 0 4 5 4 10 0 6 -5 10 -11 10 -5 0 -7
-4 -4 -10z"/>
<path d="M3355 320 c-3 -6 1 -7 9 -4 18 7 21 14 7 14 -6 0 -13 -4 -16 -10z"/>
<path d="M3356 273 c-6 -14 -5 -15 5 -6 7 7 10 15 7 18 -3 3 -9 -2 -12 -12z"/>
<path d="M3285 3510 c-3 -5 3 -10 14 -10 11 0 23 5 26 10 3 6 -3 10 -14 10
-11 0 -23 -4 -26 -10z"/>
<path d="M3266 3478 c3 -5 -2 -16 -12 -23 -18 -13 -18 -14 3 -8 34 8 48 29 23
36 -12 3 -17 1 -14 -5z"/>
<path d="M3480 3483 c0 -5 9 -14 20 -21 11 -7 20 -8 20 -2 0 5 -9 14 -20 20
-11 6 -20 7 -20 3z"/>
<path d="M3228 3343 c-31 -15 -39 -36 -10 -26 9 4 19 10 22 13 3 4 14 12 25
18 30 17 -4 13 -37 -5z"/>
<path d="M155 3070 c-4 -6 5 -10 19 -10 14 0 26 5 26 10 0 6 -9 10 -19 10 -11
0 -23 -4 -26 -10z"/>
<path d="M228 3069 c-8 -6 1 -9 25 -9 20 0 37 2 37 4 0 9 -50 12 -62 5z"/>
<path d="M1290 3010 c0 -5 5 -10 10 -10 6 0 10 5 10 10 0 6 -4 10 -10 10 -5 0
-10 -4 -10 -10z"/>
<path d="M1425 2990 c-3 -5 -1 -10 4 -10 6 0 11 5 11 10 0 6 -2 10 -4 10 -3 0
-8 -4 -11 -10z"/>
<path d="M1332 2970 c-15 -25 -15 -30 2 -30 8 0 17 -6 19 -12 3 -7 6 4 6 25 1
41 -8 47 -27 17z"/>
<path d="M953 2943 c-10 -4 -9 -9 3 -20 17 -18 30 -11 17 10 -4 8 -14 12 -20
10z"/>
<path d="M1850 2946 c0 -2 7 -9 15 -16 12 -10 15 -10 15 4 0 9 -7 16 -15 16
-8 0 -15 -2 -15 -4z"/>
<path d="M1080 2930 c0 -5 9 -10 20 -10 11 0 20 5 20 10 0 6 -9 10 -20 10 -11
0 -20 -4 -20 -10z"/>
<path d="M1292 2926 c1 -10 8 -17 13 -17 15 1 12 24 -3 29 -9 3 -13 -2 -10
-12z"/>
<path d="M767 2924 c-15 -15 -6 -32 13 -27 12 3 19 10 17 16 -4 14 -21 19 -30
11z"/>
<path d="M1487 2923 c-10 -10 -8 -43 2 -43 9 0 21 24 21 41 0 11 -14 12 -23 2z"/>
<path d="M665 2892 c-11 -3 -28 -10 -38 -17 -17 -12 -16 -14 13 -20 22 -5 37
-3 46 6 17 18 5 36 -21 31z"/>
<path d="M240 2876 c0 -9 5 -16 10 -16 6 0 10 4 10 9 0 6 -4 13 -10 16 -5 3
-10 -1 -10 -9z"/>
<path d="M1226 2883 c-11 -11 -6 -23 9 -23 8 0 15 4 15 9 0 13 -16 22 -24 14z"/>
<path d="M1710 2870 c0 -5 5 -10 10 -10 6 0 10 5 10 10 0 6 -4 10 -10 10 -5 0
-10 -4 -10 -10z"/>
<path d="M6415 2867 c-4 -10 -5 -21 -1 -24 10 -10 18 4 13 24 -4 17 -4 17 -12
0z"/>
<path d="M389 2863 c-23 -6 -31 -50 -10 -56 18 -4 32 7 50 41 10 19 9 22 -6
21 -10 -1 -25 -3 -34 -6z"/>
<path d="M260 2850 c-9 -6 -11 -13 -5 -17 6 -5 10 -15 10 -23 0 -9 11 -16 28
-18 15 -2 27 1 27 7 0 6 -9 11 -20 11 -22 0 -26 20 -8 38 15 15 -9 17 -32 2z"/>
<path d="M1320 2846 c0 -15 18 -31 26 -23 7 7 -7 37 -17 37 -5 0 -9 -6 -9 -14z"/>
<path d="M1900 2853 c0 -5 4 -14 9 -21 6 -10 10 -9 14 7 3 14 0 21 -9 21 -8 0
-14 -3 -14 -7z"/>
<path d="M11228 2846 c-8 -8 -23 -16 -34 -19 -10 -2 -2 -5 19 -6 31 -1 37 2
37 19 0 24 -4 25 -22 6z"/>
<path d="M835 2841 c-9 -16 3 -31 26 -31 14 0 19 6 17 17 -4 20 -33 29 -43 14z"/>
<path d="M11140 2833 c-8 -2 -23 -15 -33 -29 -15 -20 -15 -24 -3 -24 8 0 21
-3 29 -6 12 -4 14 0 10 16 -4 13 0 25 8 30 16 11 10 18 -11 13z"/>
<path d="M1845 2808 c-9 -23 2 -51 17 -46 18 6 20 22 4 43 -14 19 -15 19 -21
3z"/>
<path d="M3715 2810 c3 -5 8 -10 11 -10 2 0 4 5 4 10 0 6 -5 10 -11 10 -5 0
-7 -4 -4 -10z"/>
<path d="M10975 2801 c-3 -5 -2 -12 2 -14 12 -8 63 4 63 14 0 12 -57 12 -65 0z"/>
<path d="M10833 2786 c-8 -10 -25 -12 -53 -9 -36 5 -40 3 -40 -15 0 -24 51
-45 58 -24 2 8 11 8 28 1 27 -10 51 -1 74 25 7 9 21 16 32 16 10 0 16 5 13 10
-9 15 -98 11 -112 -4z"/>
<path d="M1586 2761 c-4 -7 -5 -15 -2 -18 9 -9 19 4 14 18 -4 11 -6 11 -12 0z"/>
<path d="M11131 2749 c-18 -11 -54 -22 -80 -25 -85 -8 -91 -9 -91 -17 0 -5 -5
-5 -12 -1 -17 11 -101 5 -113 -8 -7 -7 4 -9 38 -5 26 2 63 1 82 -3 23 -5 36
-4 39 4 3 7 8 6 15 -4 8 -12 12 -12 29 3 16 14 35 18 94 16 81 -2 118 11 118
41 0 17 -7 20 -42 20 -26 0 -57 -8 -77 -21z"/>
<path d="M3327 2750 c9 -8 153 -49 153 -44 0 2 -14 11 -31 19 -32 17 -136 38
-122 25z"/>
<path d="M1370 2741 c0 -16 12 -41 20 -41 4 0 5 11 2 25 -4 23 -22 36 -22 16z"/>
<path d="M1170 2720 c0 -11 5 -20 10 -20 6 0 10 9 10 20 0 11 -4 20 -10 20 -5
0 -10 -9 -10 -20z"/>
<path d="M1666 2724 c-4 -10 -1 -21 6 -26 29 -18 36 -5 14 25 -13 16 -14 16
-20 1z"/>
<path d="M6150 2730 c0 -5 7 -10 16 -10 8 0 12 5 9 10 -3 6 -10 10 -16 10 -5
0 -9 -4 -9 -10z"/>
<path d="M890 2675 c0 -14 4 -25 9 -25 4 0 6 11 3 25 -2 14 -6 25 -8 25 -2 0
-4 -11 -4 -25z"/>
<path d="M1753 2670 c6 -17 15 -26 20 -21 5 5 3 18 -5 30 -19 31 -28 26 -15
-9z"/>
<path d="M3596 2673 c-3 -3 -3 -10 0 -14 7 -12 44 -12 44 0 0 10 -36 21 -44
14z"/>
<path d="M3780 2673 c0 -5 5 -14 12 -21 17 -17 8 -21 -58 -31 -54 -8 -50 -9
51 -9 61 0 124 4 140 8 30 7 30 7 -12 15 -26 4 -43 13 -43 21 0 8 -6 14 -14
14 -7 0 -28 3 -45 6 -17 4 -31 2 -31 -3z"/>
<path d="M11200 2671 c0 -5 -16 -15 -35 -21 -19 -6 -35 -16 -35 -21 0 -16 71
-9 95 10 l24 18 -24 11 c-14 7 -25 8 -25 3z"/>
<path d="M11073 2633 c-7 -3 -13 -11 -13 -18 0 -21 26 -25 43 -5 14 16 14 19
-1 22 -10 3 -23 3 -29 1z"/>
<path d="M1488 2594 c-9 -8 12 -54 24 -54 13 0 5 53 -8 57 -5 2 -13 1 -16 -3z"/>
<path d="M830 2566 c0 -9 5 -16 10 -16 6 0 10 4 10 9 0 6 -4 13 -10 16 -5 3
-10 -1 -10 -9z"/>
<path d="M10971 2566 c-7 -8 -8 -17 -3 -20 6 -3 15 1 21 8 7 8 8 17 3 20 -6 3
-15 -1 -21 -8z"/>
<path d="M11035 2571 c-10 -17 12 -21 25 -6 10 12 10 15 -3 15 -9 0 -18 -4
-22 -9z"/>
<path d="M11191 2557 c-1 -25 2 -28 27 -25 19 2 28 9 30 26 4 27 -22 31 -33 5
-7 -17 -8 -16 -15 2 -8 17 -9 16 -9 -8z"/>
<path d="M6688 2563 c7 -3 16 -2 19 1 4 3 -2 6 -13 5 -11 0 -14 -3 -6 -6z"/>
<path d="M1580 2530 c6 -11 13 -20 15 -20 3 0 5 9 5 20 0 11 -7 20 -15 20 -13
0 -14 -4 -5 -20z"/>
<path d="M11098 2528 c9 -9 15 -9 24 0 9 9 7 12 -12 12 -19 0 -21 -3 -12 -12z"/>
<path d="M10932 2511 c-41 -21 -41 -36 1 -26 17 4 50 9 72 10 61 4 60 4 50 14
-18 17 -89 18 -123 2z"/>
<path d="M1730 2486 c0 -13 7 -26 15 -30 16 -6 20 10 9 38 -9 24 -24 19 -24
-8z"/>
<path d="M7018 2503 c7 -3 16 -2 19 1 4 3 -2 6 -13 5 -11 0 -14 -3 -6 -6z"/>
<path d="M10814 2503 c-14 -3 -24 -14 -27 -29 l-4 -25 22 21 c16 15 29 19 49
14 16 -4 26 -2 26 5 0 6 -4 11 -9 11 -5 0 -15 2 -23 4 -7 2 -23 1 -34 -1z"/>
<path d="M6290 2490 c0 -5 5 -10 10 -10 6 0 10 5 10 10 0 6 -4 10 -10 10 -5 0
-10 -4 -10 -10z"/>
<path d="M6450 2492 c0 -4 18 -7 40 -7 22 0 40 3 40 7 0 5 -18 8 -40 8 -22 0
-40 -3 -40 -8z"/>
<path d="M1840 2465 c-14 -8 -19 -14 -12 -15 6 0 12 -9 12 -20 0 -11 5 -20 11
-20 6 0 8 7 5 16 -4 9 -1 23 5 31 17 20 8 23 -21 8z"/>
<path d="M10686 2472 c-12 -11 -6 -32 9 -32 19 0 65 21 65 31 0 8 -66 10 -74
1z"/>
<path d="M6490 2461 c0 -12 37 -17 90 -11 39 4 41 6 20 12 -35 11 -110 10
-110 -1z"/>
<path d="M2226 2398 c-4 -18 -8 -73 -11 -121 -2 -48 -8 -93 -13 -100 -12 -16
-22 -57 -14 -57 4 0 14 6 23 13 13 10 17 41 22 155 3 78 4 142 3 142 -2 0 -7
-15 -10 -32z"/>
<path d="M10305 2391 c-6 -11 9 -23 19 -14 9 9 7 23 -3 23 -6 0 -12 -4 -16 -9z"/>
<path d="M10075 2360 c-4 -6 5 -10 19 -10 14 0 26 5 26 10 0 6 -9 10 -19 10
-11 0 -23 -4 -26 -10z"/>
<path d="M9915 2330 c-3 -5 -1 -10 4 -10 6 0 11 5 11 10 0 6 -2 10 -4 10 -3 0
-8 -4 -11 -10z"/>
<path d="M1058 2293 c7 -3 16 -2 19 1 4 3 -2 6 -13 5 -11 0 -14 -3 -6 -6z"/>
<path d="M9655 2291 c-10 -18 17 -23 33 -7 15 15 15 16 -5 16 -12 0 -24 -4
-28 -9z"/>
<path d="M2035 2263 c-3 -15 -13 -32 -21 -38 -8 -6 -16 -17 -17 -25 -2 -8 -6
-21 -10 -27 -5 -7 -10 -36 -12 -65 -2 -29 -10 -67 -17 -85 -6 -18 -9 -35 -6
-38 3 -4 35 10 71 30 l64 37 -4 52 c-4 48 -32 186 -38 186 -2 0 -6 -12 -10
-27z"/>
<path d="M9498 2263 c7 -3 16 -2 19 1 4 3 -2 6 -13 5 -11 0 -14 -3 -6 -6z"/>
<path d="M1881 2024 c0 -11 3 -14 6 -6 3 7 2 16 -1 19 -3 4 -6 -2 -5 -13z"/>
<path d="M1627 1933 c-4 -6 -3 -21 1 -34 11 -29 21 -12 12 21 -3 15 -9 20 -13
13z"/>
<path d="M1261 1898 c1 -7 5 -24 9 -38 7 -22 8 -21 9 13 1 20 -3 37 -9 37 -5
0 -10 -6 -9 -12z"/>
<path d="M405 1510 c3 -5 11 -10 16 -10 6 0 7 5 4 10 -3 6 -11 10 -16 10 -6 0
-7 -4 -4 -10z"/>
<path d="M1555 1350 c-3 -5 -2 -10 4 -10 5 0 13 5 16 10 3 6 2 10 -4 10 -5 0
-13 -4 -16 -10z"/>
<path d="M6968 1223 c6 -2 18 -2 25 0 6 3 1 5 -13 5 -14 0 -19 -2 -12 -5z"/>
<path d="M1680 1120 c0 -5 5 -10 10 -10 6 0 10 5 10 10 0 6 -4 10 -10 10 -5 0
-10 -4 -10 -10z"/>
<path d="M11093 863 c-26 -5 -31 -28 -7 -37 25 -10 29 -7 29 19 0 14 0 24 0
24 0 -1 -10 -4 -22 -6z"/>
<path d="M11122 838 c6 -18 28 -21 28 -4 0 9 -7 16 -16 16 -9 0 -14 -5 -12
-12z"/>
<path d="M11190 750 c20 -13 50 -13 50 0 0 6 -15 10 -32 10 -25 0 -29 -3 -18
-10z"/>
<path d="M11146 724 c-3 -8 1 -14 9 -14 20 0 28 17 11 23 -8 3 -17 -1 -20 -9z"/>
<path d="M11075 710 c-3 -6 1 -7 9 -4 18 7 21 14 7 14 -6 0 -13 -4 -16 -10z"/>
<path d="M11120 670 c0 -5 12 -10 28 -9 24 0 25 1 7 9 -27 12 -35 12 -35 0z"/>
<path d="M1770 649 c0 -5 5 -7 10 -4 6 3 10 8 10 11 0 2 -4 4 -10 4 -5 0 -10
-5 -10 -11z"/>
<path d="M1526 641 c-4 -7 -5 -15 -2 -18 9 -9 19 4 14 18 -4 11 -6 11 -12 0z"/>
<path d="M825 510 c-3 -5 -1 -10 4 -10 6 0 11 5 11 10 0 6 -2 10 -4 10 -3 0
-8 -4 -11 -10z"/>
<path d="M1780 500 c-12 -8 -10 -10 8 -10 13 0 20 4 17 10 -7 12 -6 12 -25 0z"/>
<path d="M1668 463 c6 -2 18 -2 25 0 6 3 1 5 -13 5 -14 0 -19 -2 -12 -5z"/>
<path d="M1414 435 c-10 -8 -14 -14 -9 -15 15 0 40 18 34 24 -3 3 -14 -1 -25
-9z"/>
<path d="M943 358 c-13 -6 -23 -14 -23 -19 0 -12 38 2 44 17 3 8 4 14 3 13 -1
0 -12 -5 -24 -11z"/>
<path d="M1710 311 c0 -5 -14 -12 -31 -16 -42 -9 -28 -19 16 -11 21 4 35 13
35 21 0 8 -4 15 -10 15 -5 0 -10 -4 -10 -9z"/>
<path d="M1971 284 c0 -11 3 -14 6 -6 3 7 2 16 -1 19 -3 4 -6 -2 -5 -13z"/>
<path d="M1505 250 c-7 -12 2 -12 30 0 19 8 19 9 -2 9 -12 1 -25 -3 -28 -9z"/>
<path d="M1973 246 c4 -10 7 -29 7 -42 0 -16 4 -23 11 -18 7 4 10 1 7 -7 -3
-8 -11 -13 -17 -11 -6 1 -14 -5 -17 -13 -4 -8 -12 -15 -19 -15 -7 0 -18 -6
-24 -14 -10 -12 -8 -13 11 -7 91 30 100 39 73 75 -8 11 -15 28 -15 37 0 10 -5
21 -12 25 -8 5 -9 2 -5 -10z"/>
<path d="M1223 230 c-7 -10 -28 -22 -48 -26 -19 -3 -35 -11 -35 -16 0 -6 8 -7
18 -3 9 4 32 11 50 17 22 6 32 15 32 28 0 25 -2 25 -17 0z"/>
<path d="M11025 210 c-4 -6 5 -10 19 -10 14 0 26 5 26 10 0 6 -9 10 -19 10
-11 0 -23 -4 -26 -10z"/>
<path d="M10958 183 c7 -3 16 -2 19 1 4 3 -2 6 -13 5 -11 0 -14 -3 -6 -6z"/>
<path d="M1058 173 c7 -3 16 -2 19 1 4 3 -2 6 -13 5 -11 0 -14 -3 -6 -6z"/>
<path d="M1491 154 c0 -11 3 -14 6 -6 3 7 2 16 -1 19 -3 4 -6 -2 -5 -13z"/>
<path d="M3690 115 c0 -25 14 -34 24 -16 8 12 -3 41 -15 41 -5 0 -9 -11 -9
-25z"/>
<path d="M2930 120 c-8 -5 -10 -10 -5 -10 6 0 17 5 25 10 8 5 11 10 5 10 -5 0
-17 -5 -25 -10z"/>
<path d="M3703 74 c-23 -25 -15 -31 18 -14 10 6 19 17 19 25 0 21 -11 17 -37
-11z"/>
<path d="M1494 76 c-4 -10 -16 -22 -28 -27 -17 -8 -15 -8 9 -4 39 8 53 21 37
37 -9 9 -13 7 -18 -6z"/>
<path d="M5480 74 c0 -8 5 -12 10 -9 6 3 10 10 10 16 0 5 -4 9 -10 9 -5 0 -10
-7 -10 -16z"/>
<path d="M596 21 c-4 -7 -5 -15 -2 -18 9 -9 19 4 14 18 -4 11 -6 11 -12 0z"/>
<path d="M5870 10 c0 -5 4 -10 9 -10 6 0 13 5 16 10 3 6 -1 10 -9 10 -9 0 -16
-4 -16 -10z"/>
</g>
</svg>
